M48
; DRILL file {KiCad (5.1.0)-1} date 24.11.2020 22:00:00
; FORMAT={-:-/ absolute / inch / decimal}
; #@! TF.CreationDate,2020-11-24T22:00:00+01:00
; #@! TF.GenerationSoftware,Kicad,Pcbnew,(5.1.0)-1
; #@! TF.FileFunction,Plated,1,2,PTH
FMAT,2
INCH
T1C0.0157
T2C0.0197
T3C0.0276
T4C0.0295
T5C0.0315
T6C0.0394
T7C0.0472
T8C0.0512
T9C0.0551
T10C0.0709
T11C0.0866
%
G90
G05
T1
X1.9291Y-1.7717
X1.9291Y-1.9291
X2.1974Y-4.1299
X2.1984Y-7.2059
X2.2047Y-1.7717
X2.2047Y-1.9291
X2.2214Y-4.5829
X2.2214Y-6.1879
X2.2224Y-4.9779
X2.2224Y-5.7789
X2.2244Y-6.7059
X2.2274Y-5.4029
X2.3224Y-7.9359
X2.4294Y-4.1619
X2.4344Y-3.8539
X2.4624Y-4.1299
X2.4803Y-6.1417
X2.4803Y-6.3386
X2.4803Y-6.6535
X2.4803Y-6.8504
X2.4803Y-7.0472
X2.4803Y-7.2441
X2.4925Y-5.6059
X2.5184Y-8.1479
X2.5189Y-5.6555
X2.5197Y-1.7717
X2.5693Y-5.3051
X2.5694Y-5.6939
X2.6674Y-4.5529
X2.6674Y-5.0199
X2.6694Y-5.3428
X2.6772Y-6.3386
X2.6772Y-6.8504
X2.6772Y-7.0472
X2.6772Y-7.2441
X2.6772Y-7.4409
X2.6984Y-8.1449
X2.7194Y-5.343
X2.7194Y-5.6899
X2.7803Y-6.1504
X2.8173Y-5.9709
X2.8181Y-4.5354
X2.8294Y-5.0559
X2.874Y-1.7717
X2.874Y-1.9291
X2.874Y-2.0866
X2.874Y-3.4646
X2.874Y-3.622
X2.874Y-7.0472
X2.874Y-7.2441
X2.874Y-7.4409
X2.8794Y-5.7669
X2.9331Y-5.0272
X2.9688Y-6.5849
X2.9689Y-5.9768
X2.9693Y-5.339
X2.9994Y-4.9402
X3.0038Y-6.6279
X3.0184Y-7.4819
X3.0184Y-7.4819
X3.0197Y-5.3409
X3.0197Y-5.9768
X3.0276Y-5.0197
X3.0684Y-7.4419
X3.0697Y-5.3386
X3.0697Y-5.9768
X3.1091Y-5.0047
X3.1102Y-3.4646
X3.1102Y-3.622
X3.1102Y-8.1496
X3.1193Y-5.3362
X3.1193Y-5.976
X3.1366Y-6.5445
X3.1697Y-5.6906
X3.1701Y-5.2091
X3.2084Y-5.0399
X3.3071Y-3.4646
X3.3071Y-3.622
X3.3189Y-4.9563
X3.372Y-6.2835
X3.3858Y-8.1496
X3.3874Y-6.1079
X3.397Y-6.2529
X3.4194Y-5.9648
X3.4209Y-6.2205
X3.4409Y-6.0311
X3.4409Y-6.1382
X3.4448Y-6.185
X3.4646Y-1.9685
X3.5039Y-3.4646
X3.5039Y-3.622
X3.613Y-4.8551
X3.6143Y-5.1153
X3.6169Y-5.2941
X3.6188Y-5.5485
X3.6614Y-8.1496
X3.6836Y-6.1331
X3.6836Y-6.185
X3.6864Y-6.0449
X3.7012Y-5.5508
X3.7043Y-4.8551
X3.7053Y-5.1117
X3.7102Y-5.2937
X3.7311Y-6.2205
X3.7343Y-4.6835
X3.7587Y-6.2846
X3.7795Y-4.4094
X3.7795Y-4.6457
X3.7961Y-4.8079
X3.7963Y-5.1148
X3.8008Y-5.5453
X3.802Y-5.2957
X3.806Y-6.2413
X3.8534Y-6.035
X3.8854Y-4.8551
X3.8873Y-5.1167
X3.8882Y-5.2961
X3.8906Y-5.5461
X3.8944Y-5.9239
X3.9354Y-5.9719
X3.937Y-8.1496
X3.9514Y-4.9319
X3.9624Y-6.3449
X3.9704Y-6.0009
X3.9764Y-4.4094
X3.9764Y-4.6457
X4.0084Y-5.9667
X4.0677Y-4.4803
X4.0689Y-4.6307
X4.2126Y-8.1496
X4.252Y-6.9291
X4.252Y-7.0472
X4.2736Y-4.4803
X4.2744Y-4.5289
X4.2774Y-4.5799
X4.2776Y-4.6327
X4.2804Y-4.7319
X4.2811Y-4.7819
X4.2814Y-4.6809
X4.2924Y-5.4869
X4.4094Y-6.9291
X4.4094Y-7.0472
X4.416Y-4.8179
X4.5669Y-6.9291
X4.5669Y-7.0472
X4.6164Y-4.7299
X4.6334Y-4.5799
X4.6334Y-4.6309
X4.7604Y-4.7339
X4.8634Y-3.6089
X4.8752Y-5.8323
X5.023Y-7.9399
X5.0254Y-5.3329
X5.0264Y-5.2309
X5.0494Y-7.8869
X5.2304Y-5.5769
X5.2394Y-5.9089
X5.2536Y-5.7289
X5.2536Y-5.4829
X5.2548Y-5.3509
X5.2944Y-5.7979
X5.2944Y-5.8659
X5.3105Y-5.9825
X5.3124Y-6.0529
X5.3264Y-5.9079
X5.3564Y-6.0189
X5.3574Y-5.9509
X5.3646Y-5.5319
X5.3663Y-5.2799
X5.4148Y-5.4322
X5.5524Y-3.5359
X6.3386Y-7.3228
X6.3386Y-7.4803
X6.3386Y-7.5984
X6.3386Y-7.7559
X6.4961Y-7.3228
X6.4961Y-7.4803
X6.4961Y-7.5984
X6.4961Y-7.7559
X6.6535Y-7.3228
X6.6535Y-7.4803
X6.6535Y-7.5984
X6.6535Y-7.7559
X6.811Y-7.3228
X6.811Y-7.4803
X6.811Y-7.5984
X6.811Y-7.7559
X6.9685Y-7.3228
X6.9685Y-7.4803
X6.9685Y-7.5984
X6.9685Y-7.7559
X7.0287Y-6.0764
X7.2134Y-5.5459
X7.2544Y-3.4729
X7.2554Y-8.0249
X7.2884Y-8.1219
X7.2904Y-3.4729
X7.3134Y-8.1609
X7.32Y-8.0889
X7.3264Y-3.3039
X7.3274Y-3.4729
X7.3304Y-4.0509
X7.3494Y-4.0929
X7.3554Y-8.0589
X7.3554Y-8.1809
X7.3624Y-3.3039
X7.3774Y-4.3089
X7.3794Y-4.1269
X7.3874Y-7.3959
X7.3914Y-7.3319
X7.3944Y-8.2029
X7.3974Y-3.3039
X7.4244Y-7.2769
X7.4394Y-8.1769
X7.4424Y-4.3709
X7.4424Y-7.3739
X7.4609Y-8.12
X7.4614Y-7.2509
X7.4744Y-8.2099
X7.5204Y-5.5479
X7.5224Y-4.1769
X7.5294Y-3.3939
X7.5318Y-4.5154
X7.5324Y-4.3439
X7.5338Y-8.1965
X7.5354Y-3.3499
X7.5354Y-5.0169
X7.5494Y-3.3079
X7.5535Y-4.2362
X7.5584Y-4.6159
X7.5604Y-5.0739
X7.5674Y-3.2569
X7.5705Y-3.8605
X7.5784Y-4.3239
X7.5854Y-5.9449
X7.5873Y-4.204
X7.6094Y-8.1089
X7.6189Y-4.0453
X7.623Y-4.3358
X7.6404Y-3.4409
X7.6484Y-3.2609
X7.663Y-4.01
X7.6864Y-3.2942
X7.7044Y-3.9719
X7.7204Y-5.9249
X7.7433Y-5.8857
X7.7434Y-7.2069
X7.7894Y-7.1709
X7.8046Y-5.9024
X7.8104Y-5.5379
X7.8454Y-5.5639
X7.8684Y-4.3899
X7.874Y-5.927
X7.8794Y-5.5939
X7.9114Y-3.4729
X7.9133Y-6.4167
X7.9154Y-7.0759
X7.9264Y-5.6109
X7.9264Y-7.7769
X7.9291Y-6.5402
X7.9504Y-3.4409
X7.9714Y-7.7449
X7.9774Y-6.3419
X7.9794Y-6.7419
X7.9794Y-7.0809
X8.0014Y-6.7839
X8.0016Y-5.4965
X8.0114Y-7.7199
X8.0214Y-6.2399
X8.026Y-6.5417
X8.0359Y-8.2643
X8.0384Y-7.6819
X8.0544Y-3.4729
X8.0754Y-6.2769
X8.0954Y-5.8349
X8.1104Y-6.5215
X8.1264Y-7.6819
X8.1314Y-3.5279
X8.1364Y-8.4269
X8.1514Y-8.2294
X8.2244Y-7.7219
X8.2264Y-6.1402
X8.2284Y-6.8202
X8.2394Y-8.1989
X8.2514Y-3.3329
X8.2524Y-7.9209
X8.278Y-6.1362
X8.2933Y-6.1795
X8.2949Y-6.4021
X8.3004Y-8.1849
X8.3044Y-4.4272
X8.3114Y-4.5689
X8.3234Y-3.0229
X8.3274Y-7.7409
X8.3514Y-8.1689
X8.3644Y-8.4239
X8.3674Y-8.2569
X8.3744Y-3.2709
X8.3791Y-6.1346
X8.3874Y-3.3439
X8.3944Y-4.4799
X8.404Y-3.3025
X8.4054Y-8.1489
X8.4074Y-7.9419
X8.4104Y-5.3549
X8.4274Y-6.6769
X8.4294Y-5.8364
X8.4354Y-7.2549
X8.436Y-6.356
X8.4414Y-3.4069
X8.4454Y-3.3529
X8.4532Y-8.1327
X8.478Y-5.819
X8.4784Y-4.3804
X8.4784Y-4.8889
X8.4874Y-3.3789
X8.5021Y-8.1175
X8.5224Y-3.9059
X8.525Y-3.102
X8.5274Y-7.7779
X8.5884Y-4.2639
X8.5934Y-8.2509
X8.5944Y-8.4239
X8.617Y-6.2639
X8.6224Y-5.3499
X8.628Y-5.855
X8.6705Y-5.1524
X8.6772Y-4.6044
X8.6774Y-5.4722
X8.68Y-5.854
X8.6834Y-6.3449
X8.6958Y-5.8949
X8.726Y-5.179
X8.7274Y-5.6129
X8.7334Y-3.3779
X8.736Y-6.264
X8.7729Y-4.2295
X8.782Y-2.478
X8.782Y-5.908
X8.7864Y-4.2829
X8.823Y-6.2639
X8.827Y-4.5154
X8.827Y-4.6493
X8.8274Y-5.6109
X8.878Y-5.3992
X8.8794Y-4.2849
X8.9254Y-3.8979
X8.9274Y-5.6109
X8.9274Y-5.1679
X8.9276Y-6.2007
X8.928Y-8.226
X8.9284Y-8.4769
X8.9454Y-5.3739
X8.9714Y-4.2052
X8.9903Y-6.2407
X9.006Y-2.9737
X9.025Y-4.039
X9.026Y-6.4964
X9.026Y-8.09
X9.0404Y-5.5299
X9.051Y-8.394
X9.076Y-5.791
X9.0914Y-5.3699
X9.1104Y-3.0609
X9.1144Y-3.3199
X9.118Y-6.2723
X9.1224Y-3.0049
X9.1253Y-2.9556
X9.1272Y-4.4181
X9.1283Y-6.098
X9.1386Y-8.3266
X9.142Y-8.428
X9.143Y-8.277
X9.1772Y-4.6076
X9.1772Y-5.5063
X9.1772Y-5.7606
X9.2142Y-6.4898
X9.225Y-4.043
X9.2307Y-6.1138
X9.2677Y-6.481
X9.2697Y-6.1402
X9.2794Y-5.5269
X9.2824Y-6.8439
X9.2944Y-7.4069
X9.3178Y-6.4756
X9.3394Y-6.8419
X9.3604Y-7.9799
X9.3744Y-4.3939
X9.4134Y-4.8605
X9.4164Y-8.2759
X9.4374Y-8.4779
X9.4584Y-7.9789
X9.478Y-6.8289
X9.5019Y-6.7909
X9.5124Y-4.8365
X9.5164Y-4.5519
X9.5604Y-6.7219
X9.5684Y-7.0679
X9.5734Y-7.0169
X9.5736Y-4.215
X9.5772Y-4.5626
X9.5844Y-4.8479
X9.5944Y-6.9669
X9.6464Y-4.7259
X9.6464Y-7.9849
X9.6473Y-8.0592
X9.6755Y-4.6799
X9.694Y-8.134
X9.6944Y-7.7989
X9.7094Y-8.0719
X9.7154Y-5.8389
X9.7273Y-4.2215
X9.7388Y-5.5959
X9.7434Y-6.4749
X9.7444Y-5.8009
X9.7444Y-7.8149
X9.757Y-8.279
X9.759Y-8.228
X9.7594Y-8.4779
X9.76Y-8.18
X9.7641Y-5.5239
X9.788Y-4.6039
X9.8014Y-8.3139
X9.8024Y-3.8669
X9.8114Y-4.2249
X9.8184Y-7.8649
X9.8329Y-5.7629
X9.8354Y-3.0489
X9.8374Y-2.5709
X9.8394Y-4.6779
X9.8454Y-8.4269
X9.8484Y-2.9999
X9.8512Y-4.6125
X9.8584Y-2.9529
X9.8596Y-4.5426
X9.8644Y-4.4999
X9.8824Y-5.8389
X9.8854Y-3.0329
X9.8854Y-7.8669
X9.8864Y-4.5809
X9.9054Y-2.9859
X9.9084Y-3.9899
X9.9114Y-2.9149
X9.9294Y-3.2179
X9.9314Y-5.3979
X9.9394Y-5.1589
X9.9474Y-4.7269
X9.9496Y-4.3679
X9.9574Y-3.2549
X9.971Y-5.1289
X9.9804Y-3.2919
X9.9844Y-4.8199
X10.0064Y-5.1609
X10.0154Y-4.2889
X10.0504Y-3.0949
X10.0524Y-3.0469
X10.0844Y-4.4289
X10.1181Y-3.8583
X10.1181Y-4.0157
X10.1181Y-5.0
X10.1181Y-5.1969
X10.1181Y-5.3937
X10.1181Y-5.5906
X10.1181Y-5.7874
X10.1474Y-3.5679
X10.1575Y-2.7559
X10.1575Y-2.9528
X10.1969Y-8.2283
X10.1969Y-8.5433
X10.2474Y-3.4049
X10.2484Y-3.5689
X10.2756Y-3.8583
X10.2756Y-4.0157
X10.2814Y-3.5029
X10.3543Y-2.7559
X10.3543Y-2.9528
X10.3543Y-3.1496
X10.3543Y-3.3465
X10.3543Y-5.0
X10.3543Y-5.1969
X10.3543Y-5.3937
X10.3543Y-5.5906
X10.3543Y-5.7874
X10.3937Y-7.2441
X10.3937Y-7.4409
X10.3937Y-7.6378
X10.3937Y-7.8346
X10.4331Y-3.6614
X10.4331Y-3.8583
X10.4331Y-4.0157
X10.4331Y-8.2283
X10.4331Y-8.5433
X10.5512Y-2.7559
X10.5512Y-2.9528
X10.5512Y-3.1496
X10.5512Y-3.3465
X10.5854Y-7.8309
X10.5894Y-7.6419
X10.5906Y-3.8976
X10.5906Y-4.0157
X10.5906Y-5.0
X10.5906Y-5.1969
X10.5906Y-5.3937
X10.5906Y-5.5906
X10.5934Y-7.4329
X10.6014Y-3.5579
X10.6024Y-7.2379
X10.6299Y-4.0551
X10.6299Y-4.2126
X10.6299Y-4.3307
X10.6508Y-3.9619
X10.6693Y-8.5433
X10.6824Y-4.0009
X10.6841Y-4.0709
X10.748Y-2.7559
X10.748Y-2.9528
X10.748Y-3.1496
X10.748Y-3.3465
X10.7704Y-6.8939
X10.7724Y-6.7679
X10.8794Y-6.2072
X10.8794Y-6.4539
X10.9055Y-4.9213
X10.9055Y-5.0394
X10.9055Y-8.5433
X10.9252Y-2.0669
X10.9252Y-2.2638
X10.9252Y-2.4606
X10.9514Y-7.4399
X11.045Y-7.5549
X11.063Y-6.2598
X11.063Y-6.4567
X11.0764Y-3.8119
X11.086Y-5.506
X11.097Y-7.577
X11.1024Y-8.5433
X11.116Y-2.069
X11.117Y-2.257
X11.122Y-2.4606
X11.1374Y-4.6479
X11.142Y-5.438
X11.1814Y-3.1149
X11.2324Y-6.0449
X11.234Y-5.405
X11.277Y-7.817
X11.2784Y-5.1359
X11.335Y-5.399
X11.3364Y-4.5429
X11.3814Y-3.8039
X11.434Y-5.401
X11.5157Y-2.2638
X11.533Y-5.403
X11.5402Y-3.345
X11.634Y-4.903
X11.7126Y-1.9685
X11.7126Y-2.2638
X11.7424Y-3.3479
X11.7864Y-6.2148
X11.796Y-7.8075
X11.811Y-8.563
X11.8504Y-4.0551
X11.881Y-5.217
X11.8898Y-4.3307
X11.8898Y-4.4488
X11.9094Y-1.9685
X12.01Y-7.7865
X12.0335Y-5.8975
X12.0774Y-2.9869
X12.1063Y-1.9685
X12.1063Y-8.563
X12.133Y-5.8965
X12.1369Y-4.9293
X12.1575Y-7.61
X12.1664Y-3.9419
X12.176Y-7.821
X12.1974Y-3.7079
X12.2047Y-5.1969
X12.2282Y-5.0159
X12.233Y-5.8945
X12.3031Y-1.9685
X12.3228Y-4.4488
X12.3228Y-4.5669
X12.3228Y-5.1969
X12.325Y-3.035
X12.3335Y-5.89
X12.376Y-7.8195
X12.3857Y-5.0159
X12.4016Y-3.7402
X12.4016Y-3.8976
X12.4016Y-8.563
X12.4344Y-5.8446
X12.4409Y-4.3307
X12.4409Y-4.4488
X12.5Y-1.9685
X12.503Y-5.766
X12.505Y-3.03
X12.535Y-4.611
X12.605Y-5.092
X12.612Y-5.8175
X12.6219Y-5.0159
X12.635Y-6.884
X12.641Y-5.092
X12.6614Y-5.8119
X12.674Y-7.819
X12.69Y-3.03
X12.6969Y-1.9685
X12.6969Y-8.563
X12.739Y-6.26
X12.7594Y-5.7549
X12.7765Y-7.817
X12.822Y-5.8175
X12.8924Y-5.7629
X12.8937Y-2.0669
X12.9132Y-5.512
X12.922Y-4.5945
X12.955Y-5.3002
X12.965Y-3.025
X12.9664Y-5.7629
X12.9664Y-5.8469
X12.978Y-4.5945
X12.987Y-5.3319
X12.9921Y-4.2126
X13.024Y-4.523
X13.033Y-4.5945
X13.0395Y-5.3319
X13.0709Y-4.0945
X13.0709Y-5.5118
X13.0906Y-2.1654
X13.0924Y-6.1469
X13.1102Y-5.5906
X13.123Y-6.486
X13.16Y-6.456
X13.199Y-6.438
X13.2384Y-6.4109
X13.287Y-5.157
X13.288Y-5.343
X13.288Y-5.401
X13.288Y-5.25
X13.3405Y-2.567
X13.3644Y-3.308
X13.383Y-7.364
X13.384Y-1.846
X13.384Y-7.102
X13.3858Y-8.563
X13.3882Y-3.257
X13.4121Y-2.5094
X13.4154Y-7.0459
X13.436Y-2.3976
X13.4599Y-2.2925
X13.4736Y-3.71
X13.4914Y-2.074
X13.493Y-3.659
X13.5614Y-7.3719
X13.5827Y-2.8543
X13.5827Y-3.1496
X13.5827Y-8.3661
X13.5827Y-8.563
X13.583Y-2.649
X13.6066Y-6.2428
X13.623Y-1.837
X13.6305Y-6.208
X13.6544Y-6.1706
X13.6791Y-6.1358
X13.6844Y-2.6189
X13.703Y-6.1037
X13.7269Y-6.0682
X13.7585Y-6.0431
X13.775Y-7.24
X13.779Y-7.629
X13.7824Y-6.0082
X13.783Y-8.138
X13.814Y-5.978
X13.888Y-1.974
X13.896Y-2.583
X13.914Y-3.258
X13.932Y-3.832
X14.1732Y-1.8701
X14.1732Y-2.0669
X14.1732Y-2.2638
X14.1732Y-2.4606
X14.1732Y-2.6575
X14.1732Y-3.1496
X14.1732Y-3.3465
X14.1732Y-3.5433
X14.1732Y-3.7402
X14.1732Y-3.937
T2
X9.9814Y-3.1889
X10.0134Y-3.2209
X13.0777Y-6.9177
X13.1507Y-6.9177
T3
X2.3264Y-3.7989
X2.3734Y-3.7519
X2.4194Y-3.7059
X2.4619Y-3.6634
X2.5064Y-3.6189
X2.6774Y-6.4889
X2.7264Y-6.5379
X2.7694Y-6.5809
X2.8134Y-6.6249
X4.0634Y-6.6659
X4.0634Y-6.7259
X4.0634Y-6.7849
X4.0634Y-6.8479
X4.9204Y-6.2349
X4.9204Y-6.3269
X5.6334Y-6.1359
X5.6601Y-4.3231
X5.6601Y-5.6111
X5.6904Y-6.1358
X5.7464Y-6.1358
X7.2164Y-7.7939
X7.2644Y-7.7459
X7.3064Y-7.7039
X7.3464Y-7.6639
X7.4104Y-4.9639
X7.4104Y-5.0369
X7.4104Y-5.1029
X7.4294Y-5.5899
X7.4294Y-5.6719
X7.4294Y-5.7349
X8.787Y-8.613
X8.858Y-8.618
X8.929Y-8.618
X9.9611Y-3.6286
X9.998Y-8.123
X10.5274Y-4.0589
X10.5274Y-4.1239
X10.5274Y-4.1919
X10.6014Y-3.8279
X10.6689Y-4.7414
X10.7089Y-4.7814
X10.7489Y-4.8214
X10.7934Y-8.1789
X10.8836Y-8.2087
X11.1534Y-5.6819
X11.2154Y-5.6819
X13.0744Y-5.0149
X13.1314Y-5.0159
T4
X6.1104Y-3.3559
X6.1104Y-3.4059
X6.1104Y-3.4559
X5.9194Y-5.7719
X5.9694Y-5.7719
X6.0194Y-5.7719
X6.8724Y-3.5819
X6.8724Y-3.9819
X6.2087Y-6.3413
X6.2087Y-6.3913
X6.2087Y-6.4413
X6.9614Y-3.5819
X6.9614Y-3.9819
X5.6304Y-3.0869
X5.6304Y-3.1369
X5.6304Y-3.1869
X6.7134Y-4.4089
X6.7134Y-4.8089
X5.6294Y-3.3569
X5.6294Y-3.4069
X5.6294Y-3.4569
X12.0124Y-4.0189
X12.0624Y-4.0189
X12.1124Y-4.0189
X5.0494Y-3.8079
X5.0494Y-3.8579
X5.0494Y-3.9079
X6.5024Y-4.1399
X6.5524Y-4.1399
X6.6024Y-4.1399
T5
X6.2884Y-5.2504
X6.2884Y-5.3489
X6.4084Y-3.7819
X6.4084Y-3.9787
X8.7805Y-4.9389
X8.9774Y-4.9389
X6.4104Y-6.6209
X6.4104Y-6.8177
X4.5884Y-3.5239
X4.5884Y-3.9239
X6.9134Y-5.3789
X6.9134Y-5.7789
X2.3272Y-7.5587
X2.3272Y-7.7555
X6.0017Y-6.6211
X6.0017Y-7.0211
X2.2354Y-8.2154
X2.2354Y-8.3139
X4.9144Y-3.5239
X4.9144Y-3.9239
X5.9684Y-5.0089
X5.9684Y-5.4089
X6.7731Y-6.6176
X6.7731Y-7.0176
X4.7004Y-3.5239
X4.7004Y-3.7207
X10.9843Y-4.7265
X10.9843Y-5.3265
X11.0843Y-4.7265
X11.0843Y-5.3265
X11.1843Y-4.7265
X11.1843Y-5.3265
X11.2843Y-4.7265
X11.2843Y-5.3265
X11.3843Y-4.7265
X11.3843Y-5.3265
X11.4843Y-4.7265
X11.4843Y-5.3265
X11.5843Y-4.7265
X11.5843Y-5.3265
X11.6843Y-4.7265
X11.6843Y-5.3265
X11.7843Y-4.7265
X11.7843Y-5.3265
X11.8843Y-4.7265
X11.8843Y-5.3265
X11.9843Y-4.7265
X11.9843Y-5.3265
X12.0843Y-4.7265
X12.0843Y-5.3265
X12.1843Y-4.7265
X12.1843Y-5.3265
X12.2843Y-4.7265
X12.2843Y-5.3265
X12.3843Y-4.7265
X12.3843Y-5.3265
X12.4843Y-4.7265
X12.4843Y-5.3265
X12.5843Y-4.7265
X12.5843Y-5.3265
X12.6843Y-4.7265
X12.6843Y-5.3265
X12.7843Y-4.7265
X12.7843Y-5.3265
X12.8843Y-4.7265
X12.8843Y-5.3265
X3.5059Y-4.5126
X3.5059Y-4.7094
X4.4764Y-3.524
X4.4764Y-3.7209
X6.6354Y-3.0729
X6.6354Y-3.4729
X5.7704Y-3.0719
X5.7704Y-3.4719
X9.7067Y-3.9276
X9.7067Y-4.1244
X3.3039Y-5.8575
X3.3039Y-6.0543
X2.2104Y-7.3559
X2.2104Y-7.7559
X2.4104Y-8.0789
X2.4104Y-8.2718
X2.5677Y-3.9374
X2.5677Y-4.2374
X2.6677Y-3.9374
X2.6677Y-4.2374
X2.7677Y-3.9374
X2.7677Y-4.2374
X2.8677Y-3.9374
X2.8677Y-4.2374
X2.9677Y-3.9374
X2.9677Y-4.2374
X3.0677Y-3.9374
X3.0677Y-4.2374
X3.1677Y-3.9374
X3.1677Y-4.2374
X3.2677Y-3.9374
X3.2677Y-4.2374
X3.3677Y-3.9374
X3.3677Y-4.2374
X10.9834Y-4.1629
X10.9834Y-4.4629
X11.0834Y-4.1629
X11.0834Y-4.4629
X11.1834Y-4.1629
X11.1834Y-4.4629
X11.2834Y-4.1629
X11.2834Y-4.4629
X11.3834Y-4.1629
X11.3834Y-4.4629
X11.4834Y-4.1629
X11.4834Y-4.4629
X11.5834Y-4.1629
X11.5834Y-4.4629
X11.6834Y-4.1629
X11.6834Y-4.4629
X3.1045Y-2.7079
X3.3014Y-2.7079
X5.758Y-5.51
X6.158Y-5.51
X13.176Y-7.428
X13.176Y-7.6249
X4.7803Y-5.0539
X4.9771Y-5.0539
X6.5284Y-3.5829
X10.9584Y-3.2079
X11.3584Y-3.2079
X7.0134Y-4.4069
X7.0134Y-4.8069
X6.5784Y-5.3789
X6.5784Y-5.7789
X2.5677Y-4.4098
X2.5677Y-4.7098
X2.6677Y-4.4098
X2.6677Y-4.7098
X2.7677Y-4.4098
X2.7677Y-4.7098
X2.8677Y-4.4098
X2.8677Y-4.7098
X2.9677Y-4.4098
X2.9677Y-4.7098
X3.0677Y-4.4098
X3.0677Y-4.7098
X3.1677Y-4.4098
X3.1677Y-4.7098
X3.2677Y-4.4098
X3.2677Y-4.7098
X3.3677Y-4.4098
X3.3677Y-4.7098
X5.2374Y-3.0709
X5.2374Y-3.4709
X7.539Y-6.021
X7.539Y-6.2179
X7.6772Y-3.1795
X7.6772Y-3.7795
X7.7772Y-3.1795
X7.7772Y-3.7795
X7.8772Y-3.1795
X7.8772Y-3.7795
X7.9772Y-3.1795
X7.9772Y-3.7795
X8.0772Y-3.1795
X8.0772Y-3.7795
X8.1772Y-3.1795
X8.1772Y-3.7795
X8.2772Y-3.1795
X8.2772Y-3.7795
X8.3772Y-3.1795
X8.3772Y-3.7795
X8.4772Y-3.1795
X8.4772Y-3.7795
X8.5772Y-3.1795
X8.5772Y-3.7795
X8.6772Y-3.1795
X8.6772Y-3.7795
X8.7772Y-3.1795
X8.7772Y-3.7795
X8.8772Y-3.1795
X8.8772Y-3.7795
X8.9772Y-3.1795
X8.9772Y-3.7795
X9.0772Y-3.1795
X9.0772Y-3.7795
X9.1772Y-3.1795
X9.1772Y-3.7795
X9.2772Y-3.1795
X9.2772Y-3.7795
X9.3772Y-3.1795
X9.3772Y-3.7795
X9.4772Y-3.1795
X9.4772Y-3.7795
X9.5772Y-3.1795
X9.5772Y-3.7795
X7.0024Y-7.0179
X5.9774Y-3.0719
X5.9774Y-3.4719
X3.8114Y-3.5239
X3.8114Y-3.9239
X6.0834Y-5.0089
X4.8114Y-3.5239
X4.8114Y-3.9239
X4.6601Y-5.1819
X4.6601Y-5.2819
X4.6601Y-5.3819
X4.6601Y-5.4819
X4.6601Y-5.5819
X4.6601Y-5.6819
X4.6601Y-5.7819
X4.6601Y-5.8819
X4.6601Y-5.9819
X4.6601Y-6.0819
X4.9601Y-5.1819
X4.9601Y-5.2819
X4.9601Y-5.3819
X4.9601Y-5.4819
X4.9601Y-5.5819
X4.9601Y-5.6819
X4.9601Y-5.7819
X4.9601Y-5.8819
X4.9601Y-5.9819
X4.9601Y-6.0819
X6.8864Y-6.6176
X6.8864Y-7.0176
X4.1551Y-5.1849
X4.1551Y-5.2849
X4.1551Y-5.3849
X4.1551Y-5.4849
X4.1551Y-5.5849
X4.1551Y-5.6849
X4.1551Y-5.7849
X4.1551Y-5.8849
X4.1551Y-5.9849
X4.1551Y-6.0849
X4.1551Y-6.1849
X4.1551Y-6.2849
X4.4551Y-5.1849
X4.4551Y-5.2849
X4.4551Y-5.3849
X4.4551Y-5.4849
X4.4551Y-5.5849
X4.4551Y-5.6849
X4.4551Y-5.7849
X4.4551Y-5.8849
X4.4551Y-5.9849
X4.4551Y-6.0849
X4.4551Y-6.1849
X4.4551Y-6.2849
X3.7075Y-2.7069
X3.9044Y-2.7069
X6.3984Y-3.0729
X6.3984Y-3.4729
X6.9134Y-4.4069
X6.9134Y-4.8069
X6.5384Y-7.1279
X6.7313Y-7.1279
X6.5383Y-6.621
X6.5383Y-6.8179
X4.2624Y-3.5239
X4.2624Y-3.9239
X6.7134Y-5.3789
X6.7134Y-5.7789
X6.3593Y-6.1373
X6.3593Y-6.4373
X6.4593Y-6.1373
X6.4593Y-6.4373
X6.5593Y-6.1373
X6.5593Y-6.4373
X6.6593Y-6.1373
X6.6593Y-6.4373
X6.7593Y-6.1373
X6.7593Y-6.4373
X6.8593Y-6.1373
X6.8593Y-6.4373
X6.9593Y-6.1373
X6.9593Y-6.4373
X3.9254Y-3.524
X3.9254Y-3.7209
X6.6124Y-4.4069
X6.6124Y-4.8069
X5.7794Y-6.6221
X5.7794Y-7.0221
X5.8384Y-5.0089
X5.8384Y-5.4089
X6.6484Y-3.7819
X6.6484Y-3.9787
X7.0024Y-6.618
X7.0024Y-6.8149
X13.311Y-7.4437
X13.311Y-7.7437
X13.411Y-7.4437
X13.411Y-7.7437
X13.511Y-7.4437
X13.511Y-7.7437
X13.611Y-7.4437
X13.611Y-7.7437
X10.9584Y-3.0539
X11.3584Y-3.0539
X7.1694Y-3.5799
X7.1694Y-3.9799
X6.7434Y-3.0729
X6.7434Y-3.4729
X4.8622Y-4.8425
X4.9606Y-4.8425
X10.7575Y-7.3375
X10.7575Y-7.5344
X12.583Y-5.512
X12.7799Y-5.512
X7.1134Y-4.4069
X7.1134Y-4.8069
X10.9843Y-5.9595
X10.9843Y-6.5595
X11.0843Y-5.9595
X11.0843Y-6.5595
X11.1843Y-5.9595
X11.1843Y-6.5595
X11.2843Y-5.9595
X11.2843Y-6.5595
X11.3843Y-5.9595
X11.3843Y-6.5595
X11.4843Y-5.9595
X11.4843Y-6.5595
X11.5843Y-5.9595
X11.5843Y-6.5595
X11.6843Y-5.9595
X11.6843Y-6.5595
X11.7843Y-5.9595
X11.7843Y-6.5595
X11.8843Y-5.9595
X11.8843Y-6.5595
X11.9843Y-5.9595
X11.9843Y-6.5595
X12.0843Y-5.9595
X12.0843Y-6.5595
X12.1843Y-5.9595
X12.1843Y-6.5595
X12.2843Y-5.9595
X12.2843Y-6.5595
X12.3843Y-5.9595
X12.3843Y-6.5595
X12.4843Y-5.9595
X12.4843Y-6.5595
X12.5843Y-5.9595
X12.5843Y-6.5595
X12.6843Y-5.9595
X12.6843Y-6.5595
X12.7843Y-5.9595
X12.7843Y-6.5595
X12.8843Y-5.9595
X12.8843Y-6.5595
X3.3028Y-5.2236
X3.3028Y-5.4205
X6.4084Y-3.5829
X10.8504Y-4.1449
X10.8504Y-4.3417
X6.4104Y-7.0209
X6.5124Y-4.4069
X6.5124Y-4.8069
X7.6772Y-6.0142
X7.6772Y-6.6142
X7.7772Y-6.0142
X7.7772Y-6.6142
X7.8772Y-6.0142
X7.8772Y-6.6142
X7.9772Y-6.0142
X7.9772Y-6.6142
X8.0772Y-6.0142
X8.0772Y-6.6142
X8.1772Y-6.0142
X8.1772Y-6.6142
X8.2772Y-6.0142
X8.2772Y-6.6142
X8.3772Y-6.0142
X8.3772Y-6.6142
X8.4772Y-6.0142
X8.4772Y-6.6142
X8.5772Y-6.0142
X8.5772Y-6.6142
X8.6772Y-6.0142
X8.6772Y-6.6142
X8.7772Y-6.0142
X8.7772Y-6.6142
X8.8772Y-6.0142
X8.8772Y-6.6142
X8.9772Y-6.0142
X8.9772Y-6.6142
X9.0772Y-6.0142
X9.0772Y-6.6142
X9.1772Y-6.0142
X9.1772Y-6.6142
X2.8Y-2.575
X2.9969Y-2.575
X7.6772Y-4.1244
X7.6772Y-4.7244
X7.7772Y-4.1244
X7.7772Y-4.7244
X7.8772Y-4.1244
X7.8772Y-4.7244
X7.9772Y-4.1244
X7.9772Y-4.7244
X8.0772Y-4.1244
X8.0772Y-4.7244
X8.1772Y-4.1244
X8.1772Y-4.7244
X8.2772Y-4.1244
X8.2772Y-4.7244
X8.3772Y-4.1244
X8.3772Y-4.7244
X8.4772Y-4.1244
X8.4772Y-4.7244
X8.5772Y-4.1244
X8.5772Y-4.7244
X8.6772Y-4.1244
X8.6772Y-4.7244
X8.7772Y-4.1244
X8.7772Y-4.7244
X8.8772Y-4.1244
X8.8772Y-4.7244
X8.9772Y-4.1244
X8.9772Y-4.7244
X9.0772Y-4.1244
X9.0772Y-4.7244
X9.1772Y-4.1244
X9.1772Y-4.7244
X9.2772Y-4.1244
X9.2772Y-4.7244
X9.3772Y-4.1244
X9.3772Y-4.7244
X9.4772Y-4.1244
X9.4772Y-4.7244
X9.5772Y-4.1244
X9.5772Y-4.7244
X5.4664Y-3.0709
X5.4664Y-3.4709
X10.9814Y-3.6499
X10.9814Y-3.9499
X11.0814Y-3.6499
X11.0814Y-3.9499
X11.1814Y-3.6499
X11.1814Y-3.9499
X11.2814Y-3.6499
X11.2814Y-3.9499
X11.3814Y-3.6499
X11.3814Y-3.9499
X11.4814Y-3.6499
X11.4814Y-3.9499
X11.5814Y-3.6499
X11.5814Y-3.9499
X6.2824Y-7.0209
X13.0256Y-6.3311
X13.0256Y-6.528
X6.5384Y-7.0209
X6.6484Y-3.5829
X11.2914Y-3.345
X11.2914Y-3.5419
X6.1406Y-6.6205
X6.1406Y-7.0205
X5.3504Y-3.071
X5.3504Y-3.2679
X7.539Y-6.96
X7.539Y-7.1569
X11.6587Y-3.1959
X11.7374Y-3.1959
X10.8937Y-7.3569
X10.8937Y-7.6569
X10.9937Y-7.3569
X10.9937Y-7.6569
X11.0937Y-7.3569
X11.0937Y-7.6569
X11.1937Y-7.3569
X11.1937Y-7.6569
X11.2937Y-7.3569
X11.2937Y-7.6569
X11.3937Y-7.3569
X11.3937Y-7.6569
X11.4937Y-7.3569
X11.4937Y-7.6569
X11.5937Y-7.3569
X11.5937Y-7.6569
X7.0134Y-5.3789
X7.0134Y-5.7789
X5.8754Y-3.0719
X5.8754Y-3.4719
X6.5134Y-4.9389
X6.5134Y-5.2389
X6.6134Y-4.9389
X6.6134Y-5.2389
X6.7134Y-4.9389
X6.7134Y-5.2389
X6.8134Y-4.9389
X6.8134Y-5.2389
X6.9134Y-4.9389
X6.9134Y-5.2389
X7.0134Y-4.9389
X7.0134Y-5.2389
X7.1134Y-4.9389
X7.1134Y-5.2389
X7.2134Y-4.9389
X7.2134Y-5.2389
X6.8224Y-4.3039
X7.2224Y-4.3039
X7.1274Y-6.6179
X7.1274Y-6.8147
X7.6774Y-5.0759
X7.6774Y-5.6759
X7.7774Y-5.0759
X7.7774Y-5.6759
X7.8774Y-5.0759
X7.8774Y-5.6759
X7.9774Y-5.0759
X7.9774Y-5.6759
X8.0774Y-5.0759
X8.0774Y-5.6759
X8.1774Y-5.0759
X8.1774Y-5.6759
X8.2774Y-5.0759
X8.2774Y-5.6759
X8.3774Y-5.0759
X8.3774Y-5.6759
X8.4774Y-5.0759
X8.4774Y-5.6759
X8.5774Y-5.0759
X8.5774Y-5.6759
X8.6774Y-5.0759
X8.6774Y-5.6759
X8.7774Y-5.0759
X8.7774Y-5.6759
X8.8774Y-5.0759
X8.8774Y-5.6759
X8.9774Y-5.0759
X8.9774Y-5.6759
X9.0774Y-5.0759
X9.0774Y-5.6759
X9.1774Y-5.0759
X9.1774Y-5.6759
X9.2774Y-5.0759
X9.2774Y-5.6759
X9.3774Y-5.0759
X9.3774Y-5.6759
X9.4774Y-5.0759
X9.4774Y-5.6759
X9.5774Y-5.0759
X9.5774Y-5.6759
X8.4882Y-2.6331
X8.4882Y-2.8331
X8.5882Y-2.6331
X8.5882Y-2.8331
X8.6882Y-2.6331
X8.6882Y-2.8331
X8.7882Y-2.6331
X8.7882Y-2.8331
X8.8882Y-2.6331
X8.8882Y-2.8331
X8.9882Y-2.6331
X8.9882Y-2.8331
X9.0882Y-2.6331
X9.0882Y-2.8331
X9.1882Y-2.6331
X9.1882Y-2.8331
X9.2882Y-2.6331
X9.2882Y-2.8331
X9.3882Y-2.6331
X9.3882Y-2.8331
X9.4882Y-2.6331
X9.4882Y-2.8331
X9.5882Y-2.6331
X9.5882Y-2.8331
X9.6882Y-2.6331
X9.6882Y-2.8331
X9.7882Y-2.6331
X9.7882Y-2.8331
X9.8882Y-2.6331
X9.8882Y-2.8331
X5.7584Y-5.6119
X6.1584Y-5.6119
X10.9724Y-3.344
X10.9724Y-3.5409
X6.0453Y-6.1358
X6.2421Y-6.1358
X4.3644Y-3.5239
X4.3644Y-3.9239
X7.2134Y-5.3789
X7.2134Y-5.7789
X6.5284Y-3.7819
X6.5284Y-3.9787
X6.2804Y-6.6209
X6.2804Y-6.8177
X6.4124Y-4.4069
X6.4124Y-4.8069
X5.7534Y-5.9039
X6.1534Y-5.9039
X5.8917Y-6.6221
X5.8917Y-7.0221
X4.1504Y-3.524
X4.1504Y-3.7209
X7.2144Y-4.4069
X7.2144Y-4.8069
X6.7684Y-3.7819
X6.7684Y-3.9787
X4.2773Y-5.0539
X4.4741Y-5.0539
X10.8494Y-3.6309
X10.8494Y-3.8277
X7.6772Y-6.9499
X7.6772Y-7.5499
X7.7772Y-6.9499
X7.7772Y-7.5499
X7.8772Y-6.9499
X7.8772Y-7.5499
X7.9772Y-6.9499
X7.9772Y-7.5499
X8.0772Y-6.9499
X8.0772Y-7.5499
X8.1772Y-6.9499
X8.1772Y-7.5499
X8.2772Y-6.9499
X8.2772Y-7.5499
X8.3772Y-6.9499
X8.3772Y-7.5499
X8.4772Y-6.9499
X8.4772Y-7.5499
X8.5772Y-6.9499
X8.5772Y-7.5499
X8.6772Y-6.9499
X8.6772Y-7.5499
X8.7772Y-6.9499
X8.7772Y-7.5499
X8.8772Y-6.9499
X8.8772Y-7.5499
X8.9772Y-6.9499
X8.9772Y-7.5499
X9.0772Y-6.9499
X9.0772Y-7.5499
X9.1772Y-6.9499
X9.1772Y-7.5499
X5.0264Y-3.0709
X5.0264Y-3.4709
X11.871Y-7.339
X11.871Y-7.5359
X6.8134Y-4.4069
X6.8134Y-4.8069
X4.055Y-2.2413
X4.055Y-2.32
X7.1134Y-5.3789
X7.1134Y-5.7789
X3.5028Y-4.0402
X3.5028Y-4.237
X2.3104Y-8.4889
X2.7104Y-8.4889
X3.1031Y-2.575
X3.3Y-2.575
X7.1274Y-7.0179
X6.7684Y-3.5829
X5.1314Y-3.0709
X5.1314Y-3.4709
X6.8224Y-4.2009
X6.8134Y-5.3789
X6.8134Y-5.7789
X2.6354Y-7.7539
X2.6354Y-8.3539
X2.7354Y-7.7539
X2.7354Y-8.3539
X2.8354Y-7.7539
X2.8354Y-8.3539
X2.9354Y-7.7539
X2.9354Y-8.3539
X3.0354Y-7.7539
X3.0354Y-8.3539
X3.1354Y-7.7539
X3.1354Y-8.3539
X3.2354Y-7.7539
X3.2354Y-8.3539
X3.3354Y-7.7539
X3.3354Y-8.3539
X3.4354Y-7.7539
X3.4354Y-8.3539
X3.5354Y-7.7539
X3.5354Y-8.3539
X3.6354Y-7.7539
X3.6354Y-8.3539
X3.7354Y-7.7539
X3.7354Y-8.3539
X3.8354Y-7.7539
X3.8354Y-8.3539
X3.9354Y-7.7539
X3.9354Y-8.3539
X4.0354Y-7.7539
X4.0354Y-8.3539
X4.1354Y-7.7539
X4.1354Y-8.3539
X4.2354Y-7.7539
X4.2354Y-8.3539
X4.3354Y-7.7539
X4.3354Y-8.3539
X4.4354Y-7.7539
X4.4354Y-8.3539
X4.5354Y-7.7539
X4.5354Y-8.3539
X3.7081Y-2.575
X3.905Y-2.575
X2.4674Y-7.3549
X2.4674Y-7.7549
X7.0622Y-3.5799
X7.0622Y-3.9799
X7.1234Y-4.2009
X7.2218Y-4.2009
X6.6575Y-6.6176
X6.6575Y-7.0176
X6.0834Y-5.2139
X6.0834Y-5.4107
X6.5284Y-3.0729
X6.5284Y-3.4729
X2.3114Y-8.5949
X2.7114Y-8.5949
X5.3504Y-3.4709
X12.0079Y-7.3569
X12.0079Y-7.6569
X12.1079Y-7.3569
X12.1079Y-7.6569
X12.2079Y-7.3569
X12.2079Y-7.6569
X12.3079Y-7.3569
X12.3079Y-7.6569
X12.4079Y-7.3569
X12.4079Y-7.6569
X12.5079Y-7.3569
X12.5079Y-7.6569
X12.6079Y-7.3569
X12.6079Y-7.6569
X12.7079Y-7.3569
X12.7079Y-7.6569
X8.1935Y-3.9229
X8.3904Y-3.9229
X6.2714Y-3.0729
X6.2714Y-3.4729
X2.2354Y-8.0239
X2.2354Y-8.1223
X4.0374Y-3.5239
X4.0374Y-3.9239
T6
X11.888Y-3.446
X12.388Y-3.446
X3.4051Y-2.875
X3.9051Y-2.875
X4.2067Y-6.4858
X4.2067Y-6.5858
X4.3067Y-6.4858
X4.3067Y-6.5858
X4.4067Y-6.4858
X4.4067Y-6.5858
X11.888Y-3.631
X12.388Y-3.631
X9.6974Y-6.7189
X9.6974Y-6.8189
X9.7974Y-6.7189
X9.7974Y-6.8189
X9.8974Y-6.7189
X9.8974Y-6.8189
X9.9974Y-6.7189
X9.9974Y-6.8189
X9.6974Y-6.6189
X9.7974Y-6.6189
X9.8974Y-6.6189
X9.9974Y-6.6189
X10.1544Y-6.7189
X10.1544Y-6.8189
X10.2544Y-6.7189
X10.2544Y-6.8189
X10.3544Y-6.7189
X10.3544Y-6.8189
X10.4544Y-6.7189
X10.4544Y-6.8189
X10.5544Y-6.7189
X10.5544Y-6.8189
X10.6544Y-6.7189
X10.6544Y-6.8189
X2.8384Y-8.5299
X2.9384Y-8.5299
X3.0384Y-8.5299
X3.1384Y-8.5299
X3.2384Y-8.5299
X2.8354Y-7.5999
X2.9354Y-7.5999
X3.0354Y-7.5999
X3.1354Y-7.5999
X3.2354Y-7.5999
X3.3354Y-7.5999
X6.0744Y-2.4829
X6.1744Y-2.4829
X6.2744Y-2.4829
X13.589Y-2.0709
X13.589Y-2.1791
X13.589Y-2.2874
X13.589Y-2.3957
X13.589Y-2.5039
X13.6913Y-2.125
X13.6913Y-2.2333
X13.6913Y-2.3415
X13.6913Y-2.4498
X10.1544Y-6.6189
X10.2544Y-6.6189
X10.3544Y-6.6189
X10.4544Y-6.6189
X10.5544Y-6.6189
X10.6544Y-6.6189
X13.589Y-3.3343
X13.589Y-3.4425
X13.589Y-3.5508
X13.589Y-3.6591
X13.589Y-3.7673
X13.6913Y-3.3884
X13.6913Y-3.4967
X13.6913Y-3.6049
X13.6913Y-3.7132
X13.473Y-4.518
X13.473Y-5.018
X2.8Y-2.875
X3.3Y-2.875
X10.9764Y-8.2087
X11.0764Y-8.2087
X11.1764Y-8.2087
X11.2764Y-8.2087
X11.3764Y-8.2087
X11.4764Y-8.2087
X11.5764Y-8.2087
X11.6764Y-8.2087
X11.7764Y-8.2087
X11.8764Y-8.2087
X11.9764Y-8.2087
X12.0764Y-8.2087
X12.1764Y-8.2087
X12.2764Y-8.2087
X12.3764Y-8.2087
X12.4764Y-8.2087
X12.5764Y-8.2087
X12.6764Y-8.2087
X12.7764Y-8.2087
X12.8764Y-8.2087
X12.9764Y-8.2087
X13.0764Y-8.2087
X13.1764Y-8.2087
X13.2764Y-8.2087
X1.96Y-2.1231
X1.96Y-2.32
X13.28Y-4.518
X13.28Y-5.018
X11.7244Y-3.6409
X11.7244Y-3.7409
X11.7244Y-3.8409
X11.7244Y-3.9409
X6.5664Y-2.4829
X6.6664Y-2.4829
X6.7664Y-2.4829
T7
X11.9189Y-2.4488
X11.989Y-2.3307
X12.0591Y-2.4488
X12.1291Y-2.3307
X12.1992Y-2.4488
X12.2693Y-2.3307
X12.3394Y-2.4488
X12.4094Y-2.3307
X12.4795Y-2.4488
X12.5496Y-2.3307
X12.6197Y-2.4488
X12.6898Y-2.3307
X12.7598Y-2.4488
T8
X5.6601Y-4.223
X5.7586Y-3.8293
X5.857Y-4.223
T9
X3.1693Y-2.189
X3.1693Y-2.3858
X3.2677Y-2.2874
X3.4646Y-2.189
X3.6614Y-2.2874
X3.7598Y-2.189
X3.7598Y-2.3858
X6.122Y-2.1866
X6.2205Y-2.285
X6.4173Y-2.1866
X6.6142Y-2.285
X6.7126Y-2.1866
T10
X2.4016Y-2.0079
X2.5Y-2.5
X2.5Y-2.6476
X2.5Y-2.7953
X2.5984Y-2.0079
T9
G00X3.376Y-1.7953
M15
G01X3.2539Y-1.7953
M16
G05
G00X3.6752Y-1.7953
M15
G01X3.5531Y-1.7953
M16
G05
G00X6.3189Y-1.7929
M15
G01X6.2165Y-1.7929
M16
G05
G00X6.628Y-1.7929
M15
G01X6.5059Y-1.7929
M16
G05
T11
G00X6.9882Y-2.7165
M15
G01X7.185Y-2.7165
M16
G05
G00X1.8898Y-3.9173
M15
G01X1.8898Y-3.7205
M16
G05
G00X11.0433Y-8.9331
M15
G01X11.2402Y-8.9331
M16
G05
G00X12.2441Y-2.7165
M15
G01X12.4409Y-2.7165
M16
G05
G00X1.8898Y-6.7717
M15
G01X1.8898Y-6.5748
M16
G05
G00X5.5315Y-8.9331
M15
G01X5.7283Y-8.9331
M16
G05
G00X14.122Y-6.7717
M15
G01X14.122Y-6.5748
M16
G05
T0
M30
