G04 #@! TF.GenerationSoftware,KiCad,Pcbnew,(5.1.0)-1*
G04 #@! TF.CreationDate,2020-11-23T22:02:09+01:00*
G04 #@! TF.ProjectId,Atari 130XE,41746172-6920-4313-9330-58452e6b6963,1.1*
G04 #@! TF.SameCoordinates,Original*
G04 #@! TF.FileFunction,Legend,Bot*
G04 #@! TF.FilePolarity,Positive*
%FSLAX46Y46*%
G04 Gerber Fmt 4.6, Leading zero omitted, Abs format (unit mm)*
G04 Created by KiCad (PCBNEW (5.1.0)-1) date 2020-11-23 22:02:09*
%MOMM*%
%LPD*%
G04 APERTURE LIST*
%ADD10C,0.120000*%
%ADD11C,0.150000*%
%ADD12C,1.702000*%
%ADD13R,1.702000X1.702000*%
%ADD14O,1.802000X1.802000*%
%ADD15R,1.802000X1.802000*%
%ADD16R,1.152000X1.602000*%
%ADD17O,1.152000X1.602000*%
%ADD18O,1.702000X2.502000*%
%ADD19R,1.702000X2.502000*%
%ADD20R,1.602000X1.152000*%
%ADD21O,1.602000X1.152000*%
%ADD22O,2.502000X1.702000*%
%ADD23R,2.502000X1.702000*%
%ADD24O,1.702000X1.702000*%
%ADD25O,1.602000X1.602000*%
%ADD26R,1.602000X1.602000*%
%ADD27C,1.602000*%
%ADD28O,2.102000X2.102000*%
%ADD29C,2.102000*%
%ADD30C,3.302000*%
%ADD31C,0.100000*%
%ADD32C,1.527000*%
%ADD33C,2.602000*%
%ADD34C,3.602000*%
%ADD35O,3.602000X7.602000*%
%ADD36C,4.102000*%
%ADD37C,2.442000*%
%ADD38C,2.502000*%
%ADD39O,6.602000X3.102000*%
%ADD40C,3.102000*%
%ADD41C,3.502000*%
%ADD42C,4.502000*%
%ADD43O,14.102000X19.102000*%
%ADD44O,12.102000X15.102000*%
%ADD45R,2.102000X2.102000*%
%ADD46O,5.102000X10.102000*%
%ADD47O,10.102000X5.102000*%
%ADD48C,0.254000*%
G04 APERTURE END LIST*
D10*
X272039600Y-194567936D02*
X272039600Y-195772064D01*
X270219600Y-194567936D02*
X270219600Y-195772064D01*
X340011936Y-130128600D02*
X341216064Y-130128600D01*
X340011936Y-131948600D02*
X341216064Y-131948600D01*
X340011936Y-132465400D02*
X341216064Y-132465400D01*
X340011936Y-134285400D02*
X341216064Y-134285400D01*
X340011936Y-134802200D02*
X341216064Y-134802200D01*
X340011936Y-136622200D02*
X341216064Y-136622200D01*
X339999236Y-137139000D02*
X341203364Y-137139000D01*
X339999236Y-138959000D02*
X341203364Y-138959000D01*
X92827000Y-137155336D02*
X92827000Y-138359464D01*
X91007000Y-137155336D02*
X91007000Y-138359464D01*
X95138400Y-137155336D02*
X95138400Y-138359464D01*
X93318400Y-137155336D02*
X93318400Y-138359464D01*
X97449800Y-137155336D02*
X97449800Y-138359464D01*
X95629800Y-137155336D02*
X95629800Y-138359464D01*
X99761200Y-137155336D02*
X99761200Y-138359464D01*
X97941200Y-137155336D02*
X97941200Y-138359464D01*
X92712600Y-126155336D02*
X92712600Y-127359464D01*
X90892600Y-126155336D02*
X90892600Y-127359464D01*
X95024000Y-126155336D02*
X95024000Y-127359464D01*
X93204000Y-126155336D02*
X93204000Y-127359464D01*
X97335400Y-126155336D02*
X97335400Y-127359464D01*
X95515400Y-126155336D02*
X95515400Y-127359464D01*
X99646800Y-126155336D02*
X99646800Y-127359464D01*
X97826800Y-126155336D02*
X97826800Y-127359464D01*
D11*
X271531180Y-189390052D02*
X271054990Y-189056719D01*
X271531180Y-188818623D02*
X270531180Y-188818623D01*
X270531180Y-189199576D01*
X270578800Y-189294814D01*
X270626419Y-189342433D01*
X270721657Y-189390052D01*
X270864514Y-189390052D01*
X270959752Y-189342433D01*
X271007371Y-189294814D01*
X271054990Y-189199576D01*
X271054990Y-188818623D01*
X271531180Y-190342433D02*
X271531180Y-189771004D01*
X271531180Y-190056719D02*
X270531180Y-190056719D01*
X270674038Y-189961480D01*
X270769276Y-189866242D01*
X270816895Y-189771004D01*
X270531180Y-190675766D02*
X270531180Y-191294814D01*
X270912133Y-190961480D01*
X270912133Y-191104338D01*
X270959752Y-191199576D01*
X271007371Y-191247195D01*
X271102609Y-191294814D01*
X271340704Y-191294814D01*
X271435942Y-191247195D01*
X271483561Y-191199576D01*
X271531180Y-191104338D01*
X271531180Y-190818623D01*
X271483561Y-190723385D01*
X271435942Y-190675766D01*
X271531180Y-191771004D02*
X271531180Y-191961480D01*
X271483561Y-192056719D01*
X271435942Y-192104338D01*
X271293085Y-192199576D01*
X271102609Y-192247195D01*
X270721657Y-192247195D01*
X270626419Y-192199576D01*
X270578800Y-192151957D01*
X270531180Y-192056719D01*
X270531180Y-191866242D01*
X270578800Y-191771004D01*
X270626419Y-191723385D01*
X270721657Y-191675766D01*
X270959752Y-191675766D01*
X271054990Y-191723385D01*
X271102609Y-191771004D01*
X271150228Y-191866242D01*
X271150228Y-192056719D01*
X271102609Y-192151957D01*
X271054990Y-192199576D01*
X270959752Y-192247195D01*
X337065857Y-131395742D02*
X337113476Y-131443361D01*
X337256333Y-131490980D01*
X337351571Y-131490980D01*
X337494428Y-131443361D01*
X337589666Y-131348123D01*
X337637285Y-131252885D01*
X337684904Y-131062409D01*
X337684904Y-130919552D01*
X337637285Y-130729076D01*
X337589666Y-130633838D01*
X337494428Y-130538600D01*
X337351571Y-130490980D01*
X337256333Y-130490980D01*
X337113476Y-130538600D01*
X337065857Y-130586219D01*
X336732523Y-130490980D02*
X336113476Y-130490980D01*
X336446809Y-130871933D01*
X336303952Y-130871933D01*
X336208714Y-130919552D01*
X336161095Y-130967171D01*
X336113476Y-131062409D01*
X336113476Y-131300504D01*
X336161095Y-131395742D01*
X336208714Y-131443361D01*
X336303952Y-131490980D01*
X336589666Y-131490980D01*
X336684904Y-131443361D01*
X336732523Y-131395742D01*
X335780142Y-130490980D02*
X335161095Y-130490980D01*
X335494428Y-130871933D01*
X335351571Y-130871933D01*
X335256333Y-130919552D01*
X335208714Y-130967171D01*
X335161095Y-131062409D01*
X335161095Y-131300504D01*
X335208714Y-131395742D01*
X335256333Y-131443361D01*
X335351571Y-131490980D01*
X335637285Y-131490980D01*
X335732523Y-131443361D01*
X335780142Y-131395742D01*
X337116657Y-133757942D02*
X337164276Y-133805561D01*
X337307133Y-133853180D01*
X337402371Y-133853180D01*
X337545228Y-133805561D01*
X337640466Y-133710323D01*
X337688085Y-133615085D01*
X337735704Y-133424609D01*
X337735704Y-133281752D01*
X337688085Y-133091276D01*
X337640466Y-132996038D01*
X337545228Y-132900800D01*
X337402371Y-132853180D01*
X337307133Y-132853180D01*
X337164276Y-132900800D01*
X337116657Y-132948419D01*
X336783323Y-132853180D02*
X336164276Y-132853180D01*
X336497609Y-133234133D01*
X336354752Y-133234133D01*
X336259514Y-133281752D01*
X336211895Y-133329371D01*
X336164276Y-133424609D01*
X336164276Y-133662704D01*
X336211895Y-133757942D01*
X336259514Y-133805561D01*
X336354752Y-133853180D01*
X336640466Y-133853180D01*
X336735704Y-133805561D01*
X336783323Y-133757942D01*
X335783323Y-132948419D02*
X335735704Y-132900800D01*
X335640466Y-132853180D01*
X335402371Y-132853180D01*
X335307133Y-132900800D01*
X335259514Y-132948419D01*
X335211895Y-133043657D01*
X335211895Y-133138895D01*
X335259514Y-133281752D01*
X335830942Y-133853180D01*
X335211895Y-133853180D01*
X337167457Y-136196342D02*
X337215076Y-136243961D01*
X337357933Y-136291580D01*
X337453171Y-136291580D01*
X337596028Y-136243961D01*
X337691266Y-136148723D01*
X337738885Y-136053485D01*
X337786504Y-135863009D01*
X337786504Y-135720152D01*
X337738885Y-135529676D01*
X337691266Y-135434438D01*
X337596028Y-135339200D01*
X337453171Y-135291580D01*
X337357933Y-135291580D01*
X337215076Y-135339200D01*
X337167457Y-135386819D01*
X336834123Y-135291580D02*
X336215076Y-135291580D01*
X336548409Y-135672533D01*
X336405552Y-135672533D01*
X336310314Y-135720152D01*
X336262695Y-135767771D01*
X336215076Y-135863009D01*
X336215076Y-136101104D01*
X336262695Y-136196342D01*
X336310314Y-136243961D01*
X336405552Y-136291580D01*
X336691266Y-136291580D01*
X336786504Y-136243961D01*
X336834123Y-136196342D01*
X335262695Y-136291580D02*
X335834123Y-136291580D01*
X335548409Y-136291580D02*
X335548409Y-135291580D01*
X335643647Y-135434438D01*
X335738885Y-135529676D01*
X335834123Y-135577295D01*
X337218257Y-138533142D02*
X337265876Y-138580761D01*
X337408733Y-138628380D01*
X337503971Y-138628380D01*
X337646828Y-138580761D01*
X337742066Y-138485523D01*
X337789685Y-138390285D01*
X337837304Y-138199809D01*
X337837304Y-138056952D01*
X337789685Y-137866476D01*
X337742066Y-137771238D01*
X337646828Y-137676000D01*
X337503971Y-137628380D01*
X337408733Y-137628380D01*
X337265876Y-137676000D01*
X337218257Y-137723619D01*
X336884923Y-137628380D02*
X336265876Y-137628380D01*
X336599209Y-138009333D01*
X336456352Y-138009333D01*
X336361114Y-138056952D01*
X336313495Y-138104571D01*
X336265876Y-138199809D01*
X336265876Y-138437904D01*
X336313495Y-138533142D01*
X336361114Y-138580761D01*
X336456352Y-138628380D01*
X336742066Y-138628380D01*
X336837304Y-138580761D01*
X336884923Y-138533142D01*
X335646828Y-137628380D02*
X335551590Y-137628380D01*
X335456352Y-137676000D01*
X335408733Y-137723619D01*
X335361114Y-137818857D01*
X335313495Y-138009333D01*
X335313495Y-138247428D01*
X335361114Y-138437904D01*
X335408733Y-138533142D01*
X335456352Y-138580761D01*
X335551590Y-138628380D01*
X335646828Y-138628380D01*
X335742066Y-138580761D01*
X335789685Y-138533142D01*
X335837304Y-138437904D01*
X335884923Y-138247428D01*
X335884923Y-138009333D01*
X335837304Y-137818857D01*
X335789685Y-137723619D01*
X335742066Y-137676000D01*
X335646828Y-137628380D01*
X92216980Y-141362752D02*
X91740790Y-141029419D01*
X92216980Y-140791323D02*
X91216980Y-140791323D01*
X91216980Y-141172276D01*
X91264600Y-141267514D01*
X91312219Y-141315133D01*
X91407457Y-141362752D01*
X91550314Y-141362752D01*
X91645552Y-141315133D01*
X91693171Y-141267514D01*
X91740790Y-141172276D01*
X91740790Y-140791323D01*
X92216980Y-142315133D02*
X92216980Y-141743704D01*
X92216980Y-142029419D02*
X91216980Y-142029419D01*
X91359838Y-141934180D01*
X91455076Y-141838942D01*
X91502695Y-141743704D01*
X91216980Y-142934180D02*
X91216980Y-143029419D01*
X91264600Y-143124657D01*
X91312219Y-143172276D01*
X91407457Y-143219895D01*
X91597933Y-143267514D01*
X91836028Y-143267514D01*
X92026504Y-143219895D01*
X92121742Y-143172276D01*
X92169361Y-143124657D01*
X92216980Y-143029419D01*
X92216980Y-142934180D01*
X92169361Y-142838942D01*
X92121742Y-142791323D01*
X92026504Y-142743704D01*
X91836028Y-142696085D01*
X91597933Y-142696085D01*
X91407457Y-142743704D01*
X91312219Y-142791323D01*
X91264600Y-142838942D01*
X91216980Y-142934180D01*
X91216980Y-143600847D02*
X91216980Y-144267514D01*
X92216980Y-143838942D01*
X94604580Y-141388152D02*
X94128390Y-141054819D01*
X94604580Y-140816723D02*
X93604580Y-140816723D01*
X93604580Y-141197676D01*
X93652200Y-141292914D01*
X93699819Y-141340533D01*
X93795057Y-141388152D01*
X93937914Y-141388152D01*
X94033152Y-141340533D01*
X94080771Y-141292914D01*
X94128390Y-141197676D01*
X94128390Y-140816723D01*
X94604580Y-142340533D02*
X94604580Y-141769104D01*
X94604580Y-142054819D02*
X93604580Y-142054819D01*
X93747438Y-141959580D01*
X93842676Y-141864342D01*
X93890295Y-141769104D01*
X93604580Y-142959580D02*
X93604580Y-143054819D01*
X93652200Y-143150057D01*
X93699819Y-143197676D01*
X93795057Y-143245295D01*
X93985533Y-143292914D01*
X94223628Y-143292914D01*
X94414104Y-143245295D01*
X94509342Y-143197676D01*
X94556961Y-143150057D01*
X94604580Y-143054819D01*
X94604580Y-142959580D01*
X94556961Y-142864342D01*
X94509342Y-142816723D01*
X94414104Y-142769104D01*
X94223628Y-142721485D01*
X93985533Y-142721485D01*
X93795057Y-142769104D01*
X93699819Y-142816723D01*
X93652200Y-142864342D01*
X93604580Y-142959580D01*
X93604580Y-144150057D02*
X93604580Y-143959580D01*
X93652200Y-143864342D01*
X93699819Y-143816723D01*
X93842676Y-143721485D01*
X94033152Y-143673866D01*
X94414104Y-143673866D01*
X94509342Y-143721485D01*
X94556961Y-143769104D01*
X94604580Y-143864342D01*
X94604580Y-144054819D01*
X94556961Y-144150057D01*
X94509342Y-144197676D01*
X94414104Y-144245295D01*
X94176009Y-144245295D01*
X94080771Y-144197676D01*
X94033152Y-144150057D01*
X93985533Y-144054819D01*
X93985533Y-143864342D01*
X94033152Y-143769104D01*
X94080771Y-143721485D01*
X94176009Y-143673866D01*
X96814380Y-141311952D02*
X96338190Y-140978619D01*
X96814380Y-140740523D02*
X95814380Y-140740523D01*
X95814380Y-141121476D01*
X95862000Y-141216714D01*
X95909619Y-141264333D01*
X96004857Y-141311952D01*
X96147714Y-141311952D01*
X96242952Y-141264333D01*
X96290571Y-141216714D01*
X96338190Y-141121476D01*
X96338190Y-140740523D01*
X96814380Y-142264333D02*
X96814380Y-141692904D01*
X96814380Y-141978619D02*
X95814380Y-141978619D01*
X95957238Y-141883380D01*
X96052476Y-141788142D01*
X96100095Y-141692904D01*
X95814380Y-142883380D02*
X95814380Y-142978619D01*
X95862000Y-143073857D01*
X95909619Y-143121476D01*
X96004857Y-143169095D01*
X96195333Y-143216714D01*
X96433428Y-143216714D01*
X96623904Y-143169095D01*
X96719142Y-143121476D01*
X96766761Y-143073857D01*
X96814380Y-142978619D01*
X96814380Y-142883380D01*
X96766761Y-142788142D01*
X96719142Y-142740523D01*
X96623904Y-142692904D01*
X96433428Y-142645285D01*
X96195333Y-142645285D01*
X96004857Y-142692904D01*
X95909619Y-142740523D01*
X95862000Y-142788142D01*
X95814380Y-142883380D01*
X95814380Y-144121476D02*
X95814380Y-143645285D01*
X96290571Y-143597666D01*
X96242952Y-143645285D01*
X96195333Y-143740523D01*
X96195333Y-143978619D01*
X96242952Y-144073857D01*
X96290571Y-144121476D01*
X96385809Y-144169095D01*
X96623904Y-144169095D01*
X96719142Y-144121476D01*
X96766761Y-144073857D01*
X96814380Y-143978619D01*
X96814380Y-143740523D01*
X96766761Y-143645285D01*
X96719142Y-143597666D01*
X99201980Y-141210352D02*
X98725790Y-140877019D01*
X99201980Y-140638923D02*
X98201980Y-140638923D01*
X98201980Y-141019876D01*
X98249600Y-141115114D01*
X98297219Y-141162733D01*
X98392457Y-141210352D01*
X98535314Y-141210352D01*
X98630552Y-141162733D01*
X98678171Y-141115114D01*
X98725790Y-141019876D01*
X98725790Y-140638923D01*
X99201980Y-142162733D02*
X99201980Y-141591304D01*
X99201980Y-141877019D02*
X98201980Y-141877019D01*
X98344838Y-141781780D01*
X98440076Y-141686542D01*
X98487695Y-141591304D01*
X98201980Y-142781780D02*
X98201980Y-142877019D01*
X98249600Y-142972257D01*
X98297219Y-143019876D01*
X98392457Y-143067495D01*
X98582933Y-143115114D01*
X98821028Y-143115114D01*
X99011504Y-143067495D01*
X99106742Y-143019876D01*
X99154361Y-142972257D01*
X99201980Y-142877019D01*
X99201980Y-142781780D01*
X99154361Y-142686542D01*
X99106742Y-142638923D01*
X99011504Y-142591304D01*
X98821028Y-142543685D01*
X98582933Y-142543685D01*
X98392457Y-142591304D01*
X98297219Y-142638923D01*
X98249600Y-142686542D01*
X98201980Y-142781780D01*
X98535314Y-143972257D02*
X99201980Y-143972257D01*
X98154361Y-143734161D02*
X98868647Y-143496066D01*
X98868647Y-144115114D01*
X92229580Y-130489752D02*
X91753390Y-130156419D01*
X92229580Y-129918323D02*
X91229580Y-129918323D01*
X91229580Y-130299276D01*
X91277200Y-130394514D01*
X91324819Y-130442133D01*
X91420057Y-130489752D01*
X91562914Y-130489752D01*
X91658152Y-130442133D01*
X91705771Y-130394514D01*
X91753390Y-130299276D01*
X91753390Y-129918323D01*
X92229580Y-131442133D02*
X92229580Y-130870704D01*
X92229580Y-131156419D02*
X91229580Y-131156419D01*
X91372438Y-131061180D01*
X91467676Y-130965942D01*
X91515295Y-130870704D01*
X91229580Y-132061180D02*
X91229580Y-132156419D01*
X91277200Y-132251657D01*
X91324819Y-132299276D01*
X91420057Y-132346895D01*
X91610533Y-132394514D01*
X91848628Y-132394514D01*
X92039104Y-132346895D01*
X92134342Y-132299276D01*
X92181961Y-132251657D01*
X92229580Y-132156419D01*
X92229580Y-132061180D01*
X92181961Y-131965942D01*
X92134342Y-131918323D01*
X92039104Y-131870704D01*
X91848628Y-131823085D01*
X91610533Y-131823085D01*
X91420057Y-131870704D01*
X91324819Y-131918323D01*
X91277200Y-131965942D01*
X91229580Y-132061180D01*
X91229580Y-132727847D02*
X91229580Y-133346895D01*
X91610533Y-133013561D01*
X91610533Y-133156419D01*
X91658152Y-133251657D01*
X91705771Y-133299276D01*
X91801009Y-133346895D01*
X92039104Y-133346895D01*
X92134342Y-133299276D01*
X92181961Y-133251657D01*
X92229580Y-133156419D01*
X92229580Y-132870704D01*
X92181961Y-132775466D01*
X92134342Y-132727847D01*
X94515580Y-130388152D02*
X94039390Y-130054819D01*
X94515580Y-129816723D02*
X93515580Y-129816723D01*
X93515580Y-130197676D01*
X93563200Y-130292914D01*
X93610819Y-130340533D01*
X93706057Y-130388152D01*
X93848914Y-130388152D01*
X93944152Y-130340533D01*
X93991771Y-130292914D01*
X94039390Y-130197676D01*
X94039390Y-129816723D01*
X94515580Y-131340533D02*
X94515580Y-130769104D01*
X94515580Y-131054819D02*
X93515580Y-131054819D01*
X93658438Y-130959580D01*
X93753676Y-130864342D01*
X93801295Y-130769104D01*
X93515580Y-131959580D02*
X93515580Y-132054819D01*
X93563200Y-132150057D01*
X93610819Y-132197676D01*
X93706057Y-132245295D01*
X93896533Y-132292914D01*
X94134628Y-132292914D01*
X94325104Y-132245295D01*
X94420342Y-132197676D01*
X94467961Y-132150057D01*
X94515580Y-132054819D01*
X94515580Y-131959580D01*
X94467961Y-131864342D01*
X94420342Y-131816723D01*
X94325104Y-131769104D01*
X94134628Y-131721485D01*
X93896533Y-131721485D01*
X93706057Y-131769104D01*
X93610819Y-131816723D01*
X93563200Y-131864342D01*
X93515580Y-131959580D01*
X93610819Y-132673866D02*
X93563200Y-132721485D01*
X93515580Y-132816723D01*
X93515580Y-133054819D01*
X93563200Y-133150057D01*
X93610819Y-133197676D01*
X93706057Y-133245295D01*
X93801295Y-133245295D01*
X93944152Y-133197676D01*
X94515580Y-132626247D01*
X94515580Y-133245295D01*
X96750780Y-130311952D02*
X96274590Y-129978619D01*
X96750780Y-129740523D02*
X95750780Y-129740523D01*
X95750780Y-130121476D01*
X95798400Y-130216714D01*
X95846019Y-130264333D01*
X95941257Y-130311952D01*
X96084114Y-130311952D01*
X96179352Y-130264333D01*
X96226971Y-130216714D01*
X96274590Y-130121476D01*
X96274590Y-129740523D01*
X96750780Y-131264333D02*
X96750780Y-130692904D01*
X96750780Y-130978619D02*
X95750780Y-130978619D01*
X95893638Y-130883380D01*
X95988876Y-130788142D01*
X96036495Y-130692904D01*
X95750780Y-131883380D02*
X95750780Y-131978619D01*
X95798400Y-132073857D01*
X95846019Y-132121476D01*
X95941257Y-132169095D01*
X96131733Y-132216714D01*
X96369828Y-132216714D01*
X96560304Y-132169095D01*
X96655542Y-132121476D01*
X96703161Y-132073857D01*
X96750780Y-131978619D01*
X96750780Y-131883380D01*
X96703161Y-131788142D01*
X96655542Y-131740523D01*
X96560304Y-131692904D01*
X96369828Y-131645285D01*
X96131733Y-131645285D01*
X95941257Y-131692904D01*
X95846019Y-131740523D01*
X95798400Y-131788142D01*
X95750780Y-131883380D01*
X96750780Y-133169095D02*
X96750780Y-132597666D01*
X96750780Y-132883380D02*
X95750780Y-132883380D01*
X95893638Y-132788142D01*
X95988876Y-132692904D01*
X96036495Y-132597666D01*
X99062180Y-130515152D02*
X98585990Y-130181819D01*
X99062180Y-129943723D02*
X98062180Y-129943723D01*
X98062180Y-130324676D01*
X98109800Y-130419914D01*
X98157419Y-130467533D01*
X98252657Y-130515152D01*
X98395514Y-130515152D01*
X98490752Y-130467533D01*
X98538371Y-130419914D01*
X98585990Y-130324676D01*
X98585990Y-129943723D01*
X99062180Y-131467533D02*
X99062180Y-130896104D01*
X99062180Y-131181819D02*
X98062180Y-131181819D01*
X98205038Y-131086580D01*
X98300276Y-130991342D01*
X98347895Y-130896104D01*
X98062180Y-132086580D02*
X98062180Y-132181819D01*
X98109800Y-132277057D01*
X98157419Y-132324676D01*
X98252657Y-132372295D01*
X98443133Y-132419914D01*
X98681228Y-132419914D01*
X98871704Y-132372295D01*
X98966942Y-132324676D01*
X99014561Y-132277057D01*
X99062180Y-132181819D01*
X99062180Y-132086580D01*
X99014561Y-131991342D01*
X98966942Y-131943723D01*
X98871704Y-131896104D01*
X98681228Y-131848485D01*
X98443133Y-131848485D01*
X98252657Y-131896104D01*
X98157419Y-131943723D01*
X98109800Y-131991342D01*
X98062180Y-132086580D01*
X98062180Y-133038961D02*
X98062180Y-133134200D01*
X98109800Y-133229438D01*
X98157419Y-133277057D01*
X98252657Y-133324676D01*
X98443133Y-133372295D01*
X98681228Y-133372295D01*
X98871704Y-133324676D01*
X98966942Y-133277057D01*
X99014561Y-133229438D01*
X99062180Y-133134200D01*
X99062180Y-133038961D01*
X99014561Y-132943723D01*
X98966942Y-132896104D01*
X98871704Y-132848485D01*
X98681228Y-132800866D01*
X98443133Y-132800866D01*
X98252657Y-132848485D01*
X98157419Y-132896104D01*
X98109800Y-132943723D01*
X98062180Y-133038961D01*
%LPC*%
D12*
X296129800Y-81174800D03*
D13*
X298129800Y-81174800D03*
D14*
X253933800Y-170659000D03*
X253933800Y-173199000D03*
X251393800Y-170659000D03*
X251393800Y-173199000D03*
X248853800Y-170659000D03*
X248853800Y-173199000D03*
X246313800Y-170659000D03*
D15*
X246313800Y-173199000D03*
D12*
X56144000Y-186838800D03*
X56144000Y-196998800D03*
X135900000Y-88159800D03*
X119390000Y-94506000D03*
X119390000Y-89506000D03*
X138846400Y-88159800D03*
X138846400Y-77999800D03*
X162773200Y-91004600D03*
X165821200Y-91004600D03*
X168869200Y-91004600D03*
X171917200Y-91004600D03*
X173288800Y-106701800D03*
X177860800Y-178253600D03*
X181035800Y-178253600D03*
X166075200Y-178329800D03*
X162824000Y-178329800D03*
X159572800Y-178329800D03*
X154518200Y-127225000D03*
X94171600Y-68754200D03*
X99171600Y-68754200D03*
X78855400Y-68779600D03*
X83855400Y-68779600D03*
D14*
X297799600Y-92477800D03*
X297799600Y-95017800D03*
X297799600Y-97557800D03*
D15*
X297799600Y-100097800D03*
D12*
X58709400Y-218309400D03*
X68869400Y-218309400D03*
X58684000Y-215617000D03*
X68844000Y-215617000D03*
D14*
X82255200Y-216658400D03*
X79715200Y-216658400D03*
X77175200Y-216658400D03*
X74635200Y-216658400D03*
D15*
X72095200Y-216658400D03*
D14*
X84719000Y-193036400D03*
X82179000Y-193036400D03*
X79639000Y-193036400D03*
X77099000Y-193036400D03*
X74559000Y-193036400D03*
D15*
X72019000Y-193036400D03*
D14*
X166786400Y-63064600D03*
X169326400Y-63064600D03*
D15*
X171866400Y-63064600D03*
D14*
X159369600Y-63064600D03*
X156829600Y-63064600D03*
D15*
X154289600Y-63064600D03*
D12*
X123500000Y-123000000D03*
D13*
X126000000Y-123000000D03*
D12*
X127670400Y-88159800D03*
X127670400Y-77999800D03*
X130337400Y-88159800D03*
X130337400Y-77999800D03*
X133029800Y-77999800D03*
X133029800Y-88159800D03*
X135900000Y-78003600D03*
X135900000Y-83003600D03*
D16*
X307654800Y-102079000D03*
D17*
X305114800Y-102079000D03*
X306384800Y-102079000D03*
D14*
X270621600Y-168119000D03*
X268081600Y-168119000D03*
X265541600Y-168119000D03*
X263001600Y-168119000D03*
X260461600Y-168119000D03*
D15*
X257921600Y-168119000D03*
D14*
X270621600Y-170659000D03*
X270621600Y-173199000D03*
X268081600Y-170659000D03*
X268081600Y-173199000D03*
X265541600Y-170659000D03*
X265541600Y-173199000D03*
X263001600Y-170659000D03*
X263001600Y-173199000D03*
X260461600Y-170659000D03*
X260461600Y-173199000D03*
X257921600Y-170659000D03*
D15*
X257921600Y-173199000D03*
D18*
X195000000Y-176526400D03*
X233100000Y-191766400D03*
X197540000Y-176526400D03*
X230560000Y-191766400D03*
X200080000Y-176526400D03*
X228020000Y-191766400D03*
X202620000Y-176526400D03*
X225480000Y-191766400D03*
X205160000Y-176526400D03*
X222940000Y-191766400D03*
X207700000Y-176526400D03*
X220400000Y-191766400D03*
X210240000Y-176526400D03*
X217860000Y-191766400D03*
X212780000Y-176526400D03*
X215320000Y-191766400D03*
X215320000Y-176526400D03*
X212780000Y-191766400D03*
X217860000Y-176526400D03*
X210240000Y-191766400D03*
X220400000Y-176526400D03*
X207700000Y-191766400D03*
X222940000Y-176526400D03*
X205160000Y-191766400D03*
X225480000Y-176526400D03*
X202620000Y-191766400D03*
X228020000Y-176526400D03*
X200080000Y-191766400D03*
X230560000Y-176526400D03*
X197540000Y-191766400D03*
X233100000Y-176526400D03*
D19*
X195000000Y-191766400D03*
D14*
X253933800Y-168119000D03*
X251393800Y-168119000D03*
X248853800Y-168119000D03*
D15*
X246313800Y-168119000D03*
D20*
X142986600Y-87804200D03*
D21*
X142986600Y-85264200D03*
X142986600Y-86534200D03*
D20*
X143012000Y-80946200D03*
D21*
X143012000Y-78406200D03*
X143012000Y-79676200D03*
D20*
X157700000Y-163610000D03*
D21*
X157700000Y-161070000D03*
X157700000Y-162340000D03*
D20*
X155204000Y-85238800D03*
D21*
X155204000Y-87778800D03*
X155204000Y-86508800D03*
D16*
X150352600Y-146605200D03*
D17*
X152892600Y-146605200D03*
X151622600Y-146605200D03*
D16*
X165160800Y-105152400D03*
D17*
X167700800Y-105152400D03*
X166430800Y-105152400D03*
D12*
X96809400Y-99666000D03*
X96809400Y-89506000D03*
X168539000Y-78050600D03*
X168539000Y-88210600D03*
X171282200Y-78050600D03*
X171282200Y-88210600D03*
X165821200Y-78050600D03*
X165821200Y-88210600D03*
D18*
X278978200Y-105736600D03*
X296758200Y-113356600D03*
X281518200Y-105736600D03*
X294218200Y-113356600D03*
X284058200Y-105736600D03*
X291678200Y-113356600D03*
X286598200Y-105736600D03*
X289138200Y-113356600D03*
X289138200Y-105736600D03*
X286598200Y-113356600D03*
X291678200Y-105736600D03*
X284058200Y-113356600D03*
X294218200Y-105736600D03*
X281518200Y-113356600D03*
X296758200Y-105736600D03*
D19*
X278978200Y-113356600D03*
D18*
X278927400Y-92706400D03*
X294167400Y-100326400D03*
X281467400Y-92706400D03*
X291627400Y-100326400D03*
X284007400Y-92706400D03*
X289087400Y-100326400D03*
X286547400Y-92706400D03*
X286547400Y-100326400D03*
X289087400Y-92706400D03*
X284007400Y-100326400D03*
X291627400Y-92706400D03*
X281467400Y-100326400D03*
X294167400Y-92706400D03*
D19*
X278927400Y-100326400D03*
D22*
X113160800Y-131695400D03*
X105540800Y-159635400D03*
X113160800Y-134235400D03*
X105540800Y-157095400D03*
X113160800Y-136775400D03*
X105540800Y-154555400D03*
X113160800Y-139315400D03*
X105540800Y-152015400D03*
X113160800Y-141855400D03*
X105540800Y-149475400D03*
X113160800Y-144395400D03*
X105540800Y-146935400D03*
X113160800Y-146935400D03*
X105540800Y-144395400D03*
X113160800Y-149475400D03*
X105540800Y-141855400D03*
X113160800Y-152015400D03*
X105540800Y-139315400D03*
X113160800Y-154555400D03*
X105540800Y-136775400D03*
X113160800Y-157095400D03*
X105540800Y-134235400D03*
X113160800Y-159635400D03*
D23*
X105540800Y-131695400D03*
D18*
X195005800Y-128926800D03*
X243265800Y-144166800D03*
X197545800Y-128926800D03*
X240725800Y-144166800D03*
X200085800Y-128926800D03*
X238185800Y-144166800D03*
X202625800Y-128926800D03*
X235645800Y-144166800D03*
X205165800Y-128926800D03*
X233105800Y-144166800D03*
X207705800Y-128926800D03*
X230565800Y-144166800D03*
X210245800Y-128926800D03*
X228025800Y-144166800D03*
X212785800Y-128926800D03*
X225485800Y-144166800D03*
X215325800Y-128926800D03*
X222945800Y-144166800D03*
X217865800Y-128926800D03*
X220405800Y-144166800D03*
X220405800Y-128926800D03*
X217865800Y-144166800D03*
X222945800Y-128926800D03*
X215325800Y-144166800D03*
X225485800Y-128926800D03*
X212785800Y-144166800D03*
X228025800Y-128926800D03*
X210245800Y-144166800D03*
X230565800Y-128926800D03*
X207705800Y-144166800D03*
X233105800Y-128926800D03*
X205165800Y-144166800D03*
X235645800Y-128926800D03*
X202625800Y-144166800D03*
X238185800Y-128926800D03*
X200085800Y-144166800D03*
X240725800Y-128926800D03*
X197545800Y-144166800D03*
X243265800Y-128926800D03*
D19*
X195005800Y-144166800D03*
D12*
X159522000Y-173169800D03*
X159522000Y-168169800D03*
X166071600Y-168173600D03*
X166071600Y-173173600D03*
D24*
X155970000Y-178320000D03*
D12*
X155970000Y-168160000D03*
X162824000Y-173169800D03*
X162824000Y-168169800D03*
D24*
X161525400Y-155887000D03*
X176765400Y-163507000D03*
X164065400Y-155887000D03*
X174225400Y-163507000D03*
X166605400Y-155887000D03*
X171685400Y-163507000D03*
X169145400Y-155887000D03*
X169145400Y-163507000D03*
X171685400Y-155887000D03*
X166605400Y-163507000D03*
X174225400Y-155887000D03*
X164065400Y-163507000D03*
X176765400Y-155887000D03*
D13*
X161525400Y-163507000D03*
D12*
X153550000Y-155850000D03*
X158550000Y-155850000D03*
X152442200Y-178336800D03*
X152442200Y-168176800D03*
X169101000Y-168086800D03*
X169101000Y-178246800D03*
X146797400Y-168200400D03*
X146797400Y-178360400D03*
X174915000Y-168086800D03*
X174915000Y-178246800D03*
X149648200Y-168200400D03*
X149648200Y-178360400D03*
D24*
X172038000Y-178246800D03*
D12*
X172038000Y-168086800D03*
X177860800Y-168097400D03*
X177860800Y-173097400D03*
X181035800Y-173093600D03*
X181035800Y-168093600D03*
D24*
X62671800Y-196973400D03*
D12*
X62671800Y-186813400D03*
X159293400Y-78050600D03*
X159293400Y-88210600D03*
X151825800Y-88185200D03*
X151825800Y-78025200D03*
X149235000Y-78025200D03*
X149235000Y-88185200D03*
D24*
X162519200Y-88210600D03*
D12*
X162519200Y-78050600D03*
X124825600Y-89506000D03*
X124825600Y-99666000D03*
X122209400Y-99666000D03*
X122209400Y-89506000D03*
X116545200Y-89506000D03*
X116545200Y-99666000D03*
X108264800Y-89506000D03*
X108264800Y-99666000D03*
X110855600Y-89506000D03*
X110855600Y-99666000D03*
D20*
X128254600Y-96719600D03*
D21*
X128254600Y-99259600D03*
X128254600Y-97989600D03*
D12*
X105420000Y-89509800D03*
X105420000Y-94509800D03*
X113700400Y-89509800D03*
X113700400Y-94509800D03*
X179380000Y-101090000D03*
X179380000Y-90930000D03*
X182102600Y-90928400D03*
X182102600Y-101088400D03*
D25*
X174558800Y-90979200D03*
D26*
X174558800Y-101139200D03*
D25*
X176819400Y-101139200D03*
D26*
X176819400Y-90979200D03*
D12*
X173288800Y-109318000D03*
X183448800Y-109318000D03*
X102549800Y-89506000D03*
X102549800Y-99666000D03*
X99705000Y-89509800D03*
X99705000Y-94509800D03*
X162874800Y-122094200D03*
X162874800Y-111934200D03*
X165414800Y-111934200D03*
X165414800Y-122094200D03*
X183245600Y-122094200D03*
X183245600Y-111934200D03*
D25*
X170520200Y-111985000D03*
D26*
X170520200Y-122145000D03*
D12*
X173060200Y-122094200D03*
X173060200Y-111934200D03*
X175600200Y-122094200D03*
X175600200Y-111934200D03*
X178140200Y-122094200D03*
X178140200Y-111934200D03*
X180680200Y-122094200D03*
X180680200Y-111934200D03*
X167954800Y-111934200D03*
X167954800Y-122094200D03*
D24*
X146568000Y-78025200D03*
D12*
X146568000Y-88185200D03*
X156413200Y-139954000D03*
X146253200Y-139954000D03*
X146263200Y-142541200D03*
X156423200Y-142541200D03*
X156296200Y-149958000D03*
X146136200Y-149958000D03*
D24*
X148295200Y-137385000D03*
D12*
X148295200Y-127225000D03*
D24*
X151597200Y-137385000D03*
D12*
X151597200Y-127225000D03*
X159725200Y-133361000D03*
D13*
X159725200Y-135861000D03*
D12*
X170520200Y-136623000D03*
X170520200Y-146783000D03*
X183220200Y-136623000D03*
X183220200Y-146783000D03*
X175600200Y-136623000D03*
X175600200Y-146783000D03*
X178140200Y-136623000D03*
X178140200Y-146783000D03*
X180680200Y-136623000D03*
X180680200Y-146783000D03*
X173060200Y-136623000D03*
X173060200Y-146783000D03*
D24*
X167091200Y-146783000D03*
D12*
X167091200Y-136623000D03*
X286801400Y-84963200D03*
X286801400Y-89963200D03*
X183434200Y-106701800D03*
X180934200Y-106701800D03*
D24*
X278343200Y-77568000D03*
D12*
X288503200Y-77568000D03*
D24*
X278343200Y-81479600D03*
D12*
X288503200Y-81479600D03*
D27*
X61224000Y-210103000D03*
X61224000Y-205203000D03*
D14*
X106850000Y-167280000D03*
X106850000Y-164740000D03*
X109390000Y-167280000D03*
X109390000Y-164740000D03*
X111930000Y-167280000D03*
D15*
X111930000Y-164740000D03*
D12*
X56779000Y-206306000D03*
X56779000Y-203806000D03*
X56779000Y-208672000D03*
X56779000Y-211172000D03*
D28*
X301955200Y-92227400D03*
D29*
X314655200Y-92227400D03*
D28*
X301955200Y-87528400D03*
D29*
X314655200Y-87528400D03*
D28*
X342214200Y-127457200D03*
D29*
X342214200Y-114757200D03*
D28*
X337312000Y-127457200D03*
D29*
X337312000Y-114757200D03*
D28*
X71120000Y-73025000D03*
D29*
X83820000Y-73025000D03*
D28*
X86489000Y-73025000D03*
D29*
X99189000Y-73025000D03*
D12*
X154518200Y-137432000D03*
X154518200Y-132432000D03*
D30*
X146200000Y-102300000D03*
D18*
X338100000Y-189070000D03*
X345720000Y-196690000D03*
X340640000Y-189070000D03*
X343180000Y-196690000D03*
X343180000Y-189070000D03*
X340640000Y-196690000D03*
X345720000Y-189070000D03*
D19*
X338100000Y-196690000D03*
D31*
G36*
X271813963Y-195895290D02*
G01*
X271839969Y-195899148D01*
X271865471Y-195905535D01*
X271890224Y-195914392D01*
X271913990Y-195925633D01*
X271936539Y-195939148D01*
X271957656Y-195954809D01*
X271977135Y-195972465D01*
X271994791Y-195991944D01*
X272010452Y-196013061D01*
X272023967Y-196035610D01*
X272035208Y-196059376D01*
X272044065Y-196084129D01*
X272050452Y-196109631D01*
X272054310Y-196135637D01*
X272055600Y-196161895D01*
X272055600Y-197153105D01*
X272054310Y-197179363D01*
X272050452Y-197205369D01*
X272044065Y-197230871D01*
X272035208Y-197255624D01*
X272023967Y-197279390D01*
X272010452Y-197301939D01*
X271994791Y-197323056D01*
X271977135Y-197342535D01*
X271957656Y-197360191D01*
X271936539Y-197375852D01*
X271913990Y-197389367D01*
X271890224Y-197400608D01*
X271865471Y-197409465D01*
X271839969Y-197415852D01*
X271813963Y-197419710D01*
X271787705Y-197421000D01*
X270471495Y-197421000D01*
X270445237Y-197419710D01*
X270419231Y-197415852D01*
X270393729Y-197409465D01*
X270368976Y-197400608D01*
X270345210Y-197389367D01*
X270322661Y-197375852D01*
X270301544Y-197360191D01*
X270282065Y-197342535D01*
X270264409Y-197323056D01*
X270248748Y-197301939D01*
X270235233Y-197279390D01*
X270223992Y-197255624D01*
X270215135Y-197230871D01*
X270208748Y-197205369D01*
X270204890Y-197179363D01*
X270203600Y-197153105D01*
X270203600Y-196161895D01*
X270204890Y-196135637D01*
X270208748Y-196109631D01*
X270215135Y-196084129D01*
X270223992Y-196059376D01*
X270235233Y-196035610D01*
X270248748Y-196013061D01*
X270264409Y-195991944D01*
X270282065Y-195972465D01*
X270301544Y-195954809D01*
X270322661Y-195939148D01*
X270345210Y-195925633D01*
X270368976Y-195914392D01*
X270393729Y-195905535D01*
X270419231Y-195899148D01*
X270445237Y-195895290D01*
X270471495Y-195894000D01*
X271787705Y-195894000D01*
X271813963Y-195895290D01*
X271813963Y-195895290D01*
G37*
D32*
X271129600Y-196657500D03*
D31*
G36*
X271813963Y-192920290D02*
G01*
X271839969Y-192924148D01*
X271865471Y-192930535D01*
X271890224Y-192939392D01*
X271913990Y-192950633D01*
X271936539Y-192964148D01*
X271957656Y-192979809D01*
X271977135Y-192997465D01*
X271994791Y-193016944D01*
X272010452Y-193038061D01*
X272023967Y-193060610D01*
X272035208Y-193084376D01*
X272044065Y-193109129D01*
X272050452Y-193134631D01*
X272054310Y-193160637D01*
X272055600Y-193186895D01*
X272055600Y-194178105D01*
X272054310Y-194204363D01*
X272050452Y-194230369D01*
X272044065Y-194255871D01*
X272035208Y-194280624D01*
X272023967Y-194304390D01*
X272010452Y-194326939D01*
X271994791Y-194348056D01*
X271977135Y-194367535D01*
X271957656Y-194385191D01*
X271936539Y-194400852D01*
X271913990Y-194414367D01*
X271890224Y-194425608D01*
X271865471Y-194434465D01*
X271839969Y-194440852D01*
X271813963Y-194444710D01*
X271787705Y-194446000D01*
X270471495Y-194446000D01*
X270445237Y-194444710D01*
X270419231Y-194440852D01*
X270393729Y-194434465D01*
X270368976Y-194425608D01*
X270345210Y-194414367D01*
X270322661Y-194400852D01*
X270301544Y-194385191D01*
X270282065Y-194367535D01*
X270264409Y-194348056D01*
X270248748Y-194326939D01*
X270235233Y-194304390D01*
X270223992Y-194280624D01*
X270215135Y-194255871D01*
X270208748Y-194230369D01*
X270204890Y-194204363D01*
X270203600Y-194178105D01*
X270203600Y-193186895D01*
X270204890Y-193160637D01*
X270208748Y-193134631D01*
X270215135Y-193109129D01*
X270223992Y-193084376D01*
X270235233Y-193060610D01*
X270248748Y-193038061D01*
X270264409Y-193016944D01*
X270282065Y-192997465D01*
X270301544Y-192979809D01*
X270322661Y-192964148D01*
X270345210Y-192950633D01*
X270368976Y-192939392D01*
X270393729Y-192930535D01*
X270419231Y-192924148D01*
X270445237Y-192920290D01*
X270471495Y-192919000D01*
X271787705Y-192919000D01*
X271813963Y-192920290D01*
X271813963Y-192920290D01*
G37*
D32*
X271129600Y-193682500D03*
D14*
X337220000Y-208500000D03*
X334680000Y-208500000D03*
X332140000Y-208500000D03*
X329600000Y-208500000D03*
X327060000Y-208500000D03*
X324520000Y-208500000D03*
X321980000Y-208500000D03*
X319440000Y-208500000D03*
X316900000Y-208500000D03*
X314360000Y-208500000D03*
X311820000Y-208500000D03*
X309280000Y-208500000D03*
X306740000Y-208500000D03*
X304200000Y-208500000D03*
X301660000Y-208500000D03*
X299120000Y-208500000D03*
X296580000Y-208500000D03*
X294040000Y-208500000D03*
X291500000Y-208500000D03*
X288960000Y-208500000D03*
X286420000Y-208500000D03*
X283880000Y-208500000D03*
X281340000Y-208500000D03*
D15*
X278800000Y-208500000D03*
D12*
X273240500Y-191372500D03*
X273240500Y-186372500D03*
X301523400Y-191410600D03*
X301523400Y-186410600D03*
D24*
X276700000Y-186864000D03*
X294480000Y-194484000D03*
X279240000Y-186864000D03*
X291940000Y-194484000D03*
X281780000Y-186864000D03*
X289400000Y-194484000D03*
X284320000Y-186864000D03*
X286860000Y-194484000D03*
X286860000Y-186864000D03*
X284320000Y-194484000D03*
X289400000Y-186864000D03*
X281780000Y-194484000D03*
X291940000Y-186864000D03*
X279240000Y-194484000D03*
X294480000Y-186864000D03*
D13*
X276700000Y-194484000D03*
D24*
X305000000Y-186864000D03*
X322780000Y-194484000D03*
X307540000Y-186864000D03*
X320240000Y-194484000D03*
X310080000Y-186864000D03*
X317700000Y-194484000D03*
X312620000Y-186864000D03*
X315160000Y-194484000D03*
X315160000Y-186864000D03*
X312620000Y-194484000D03*
X317700000Y-186864000D03*
X310080000Y-194484000D03*
X320240000Y-186864000D03*
X307540000Y-194484000D03*
X322780000Y-186864000D03*
D13*
X305000000Y-194484000D03*
D18*
X279000000Y-120053100D03*
X327260000Y-135293100D03*
X281540000Y-120053100D03*
X324720000Y-135293100D03*
X284080000Y-120053100D03*
X322180000Y-135293100D03*
X286620000Y-120053100D03*
X319640000Y-135293100D03*
X289160000Y-120053100D03*
X317100000Y-135293100D03*
X291700000Y-120053100D03*
X314560000Y-135293100D03*
X294240000Y-120053100D03*
X312020000Y-135293100D03*
X296780000Y-120053100D03*
X309480000Y-135293100D03*
X299320000Y-120053100D03*
X306940000Y-135293100D03*
X301860000Y-120053100D03*
X304400000Y-135293100D03*
X304400000Y-120053100D03*
X301860000Y-135293100D03*
X306940000Y-120053100D03*
X299320000Y-135293100D03*
X309480000Y-120053100D03*
X296780000Y-135293100D03*
X312020000Y-120053100D03*
X294240000Y-135293100D03*
X314560000Y-120053100D03*
X291700000Y-135293100D03*
X317100000Y-120053100D03*
X289160000Y-135293100D03*
X319640000Y-120053100D03*
X286620000Y-135293100D03*
X322180000Y-120053100D03*
X284080000Y-135293100D03*
X324720000Y-120053100D03*
X281540000Y-135293100D03*
X327260000Y-120053100D03*
D19*
X279000000Y-135293100D03*
D33*
X302740000Y-62200000D03*
X304520000Y-59200000D03*
D34*
X293420000Y-51200000D03*
X333420000Y-51200000D03*
D33*
X308080000Y-59200000D03*
X311640000Y-59200000D03*
X315200000Y-59200000D03*
X318760000Y-59200000D03*
X322320000Y-59200000D03*
X306300000Y-62200000D03*
X309860000Y-62200000D03*
X313420000Y-62200000D03*
X316980000Y-62200000D03*
X320540000Y-62200000D03*
X324100000Y-62200000D03*
D12*
X324608200Y-140004800D03*
X319608200Y-140004800D03*
D31*
G36*
X342623363Y-130113890D02*
G01*
X342649369Y-130117748D01*
X342674871Y-130124135D01*
X342699624Y-130132992D01*
X342723390Y-130144233D01*
X342745939Y-130157748D01*
X342767056Y-130173409D01*
X342786535Y-130191065D01*
X342804191Y-130210544D01*
X342819852Y-130231661D01*
X342833367Y-130254210D01*
X342844608Y-130277976D01*
X342853465Y-130302729D01*
X342859852Y-130328231D01*
X342863710Y-130354237D01*
X342865000Y-130380495D01*
X342865000Y-131696705D01*
X342863710Y-131722963D01*
X342859852Y-131748969D01*
X342853465Y-131774471D01*
X342844608Y-131799224D01*
X342833367Y-131822990D01*
X342819852Y-131845539D01*
X342804191Y-131866656D01*
X342786535Y-131886135D01*
X342767056Y-131903791D01*
X342745939Y-131919452D01*
X342723390Y-131932967D01*
X342699624Y-131944208D01*
X342674871Y-131953065D01*
X342649369Y-131959452D01*
X342623363Y-131963310D01*
X342597105Y-131964600D01*
X341605895Y-131964600D01*
X341579637Y-131963310D01*
X341553631Y-131959452D01*
X341528129Y-131953065D01*
X341503376Y-131944208D01*
X341479610Y-131932967D01*
X341457061Y-131919452D01*
X341435944Y-131903791D01*
X341416465Y-131886135D01*
X341398809Y-131866656D01*
X341383148Y-131845539D01*
X341369633Y-131822990D01*
X341358392Y-131799224D01*
X341349535Y-131774471D01*
X341343148Y-131748969D01*
X341339290Y-131722963D01*
X341338000Y-131696705D01*
X341338000Y-130380495D01*
X341339290Y-130354237D01*
X341343148Y-130328231D01*
X341349535Y-130302729D01*
X341358392Y-130277976D01*
X341369633Y-130254210D01*
X341383148Y-130231661D01*
X341398809Y-130210544D01*
X341416465Y-130191065D01*
X341435944Y-130173409D01*
X341457061Y-130157748D01*
X341479610Y-130144233D01*
X341503376Y-130132992D01*
X341528129Y-130124135D01*
X341553631Y-130117748D01*
X341579637Y-130113890D01*
X341605895Y-130112600D01*
X342597105Y-130112600D01*
X342623363Y-130113890D01*
X342623363Y-130113890D01*
G37*
D32*
X342101500Y-131038600D03*
D31*
G36*
X339648363Y-130113890D02*
G01*
X339674369Y-130117748D01*
X339699871Y-130124135D01*
X339724624Y-130132992D01*
X339748390Y-130144233D01*
X339770939Y-130157748D01*
X339792056Y-130173409D01*
X339811535Y-130191065D01*
X339829191Y-130210544D01*
X339844852Y-130231661D01*
X339858367Y-130254210D01*
X339869608Y-130277976D01*
X339878465Y-130302729D01*
X339884852Y-130328231D01*
X339888710Y-130354237D01*
X339890000Y-130380495D01*
X339890000Y-131696705D01*
X339888710Y-131722963D01*
X339884852Y-131748969D01*
X339878465Y-131774471D01*
X339869608Y-131799224D01*
X339858367Y-131822990D01*
X339844852Y-131845539D01*
X339829191Y-131866656D01*
X339811535Y-131886135D01*
X339792056Y-131903791D01*
X339770939Y-131919452D01*
X339748390Y-131932967D01*
X339724624Y-131944208D01*
X339699871Y-131953065D01*
X339674369Y-131959452D01*
X339648363Y-131963310D01*
X339622105Y-131964600D01*
X338630895Y-131964600D01*
X338604637Y-131963310D01*
X338578631Y-131959452D01*
X338553129Y-131953065D01*
X338528376Y-131944208D01*
X338504610Y-131932967D01*
X338482061Y-131919452D01*
X338460944Y-131903791D01*
X338441465Y-131886135D01*
X338423809Y-131866656D01*
X338408148Y-131845539D01*
X338394633Y-131822990D01*
X338383392Y-131799224D01*
X338374535Y-131774471D01*
X338368148Y-131748969D01*
X338364290Y-131722963D01*
X338363000Y-131696705D01*
X338363000Y-130380495D01*
X338364290Y-130354237D01*
X338368148Y-130328231D01*
X338374535Y-130302729D01*
X338383392Y-130277976D01*
X338394633Y-130254210D01*
X338408148Y-130231661D01*
X338423809Y-130210544D01*
X338441465Y-130191065D01*
X338460944Y-130173409D01*
X338482061Y-130157748D01*
X338504610Y-130144233D01*
X338528376Y-130132992D01*
X338553129Y-130124135D01*
X338578631Y-130117748D01*
X338604637Y-130113890D01*
X338630895Y-130112600D01*
X339622105Y-130112600D01*
X339648363Y-130113890D01*
X339648363Y-130113890D01*
G37*
D32*
X339126500Y-131038600D03*
D31*
G36*
X342623363Y-132450690D02*
G01*
X342649369Y-132454548D01*
X342674871Y-132460935D01*
X342699624Y-132469792D01*
X342723390Y-132481033D01*
X342745939Y-132494548D01*
X342767056Y-132510209D01*
X342786535Y-132527865D01*
X342804191Y-132547344D01*
X342819852Y-132568461D01*
X342833367Y-132591010D01*
X342844608Y-132614776D01*
X342853465Y-132639529D01*
X342859852Y-132665031D01*
X342863710Y-132691037D01*
X342865000Y-132717295D01*
X342865000Y-134033505D01*
X342863710Y-134059763D01*
X342859852Y-134085769D01*
X342853465Y-134111271D01*
X342844608Y-134136024D01*
X342833367Y-134159790D01*
X342819852Y-134182339D01*
X342804191Y-134203456D01*
X342786535Y-134222935D01*
X342767056Y-134240591D01*
X342745939Y-134256252D01*
X342723390Y-134269767D01*
X342699624Y-134281008D01*
X342674871Y-134289865D01*
X342649369Y-134296252D01*
X342623363Y-134300110D01*
X342597105Y-134301400D01*
X341605895Y-134301400D01*
X341579637Y-134300110D01*
X341553631Y-134296252D01*
X341528129Y-134289865D01*
X341503376Y-134281008D01*
X341479610Y-134269767D01*
X341457061Y-134256252D01*
X341435944Y-134240591D01*
X341416465Y-134222935D01*
X341398809Y-134203456D01*
X341383148Y-134182339D01*
X341369633Y-134159790D01*
X341358392Y-134136024D01*
X341349535Y-134111271D01*
X341343148Y-134085769D01*
X341339290Y-134059763D01*
X341338000Y-134033505D01*
X341338000Y-132717295D01*
X341339290Y-132691037D01*
X341343148Y-132665031D01*
X341349535Y-132639529D01*
X341358392Y-132614776D01*
X341369633Y-132591010D01*
X341383148Y-132568461D01*
X341398809Y-132547344D01*
X341416465Y-132527865D01*
X341435944Y-132510209D01*
X341457061Y-132494548D01*
X341479610Y-132481033D01*
X341503376Y-132469792D01*
X341528129Y-132460935D01*
X341553631Y-132454548D01*
X341579637Y-132450690D01*
X341605895Y-132449400D01*
X342597105Y-132449400D01*
X342623363Y-132450690D01*
X342623363Y-132450690D01*
G37*
D32*
X342101500Y-133375400D03*
D31*
G36*
X339648363Y-132450690D02*
G01*
X339674369Y-132454548D01*
X339699871Y-132460935D01*
X339724624Y-132469792D01*
X339748390Y-132481033D01*
X339770939Y-132494548D01*
X339792056Y-132510209D01*
X339811535Y-132527865D01*
X339829191Y-132547344D01*
X339844852Y-132568461D01*
X339858367Y-132591010D01*
X339869608Y-132614776D01*
X339878465Y-132639529D01*
X339884852Y-132665031D01*
X339888710Y-132691037D01*
X339890000Y-132717295D01*
X339890000Y-134033505D01*
X339888710Y-134059763D01*
X339884852Y-134085769D01*
X339878465Y-134111271D01*
X339869608Y-134136024D01*
X339858367Y-134159790D01*
X339844852Y-134182339D01*
X339829191Y-134203456D01*
X339811535Y-134222935D01*
X339792056Y-134240591D01*
X339770939Y-134256252D01*
X339748390Y-134269767D01*
X339724624Y-134281008D01*
X339699871Y-134289865D01*
X339674369Y-134296252D01*
X339648363Y-134300110D01*
X339622105Y-134301400D01*
X338630895Y-134301400D01*
X338604637Y-134300110D01*
X338578631Y-134296252D01*
X338553129Y-134289865D01*
X338528376Y-134281008D01*
X338504610Y-134269767D01*
X338482061Y-134256252D01*
X338460944Y-134240591D01*
X338441465Y-134222935D01*
X338423809Y-134203456D01*
X338408148Y-134182339D01*
X338394633Y-134159790D01*
X338383392Y-134136024D01*
X338374535Y-134111271D01*
X338368148Y-134085769D01*
X338364290Y-134059763D01*
X338363000Y-134033505D01*
X338363000Y-132717295D01*
X338364290Y-132691037D01*
X338368148Y-132665031D01*
X338374535Y-132639529D01*
X338383392Y-132614776D01*
X338394633Y-132591010D01*
X338408148Y-132568461D01*
X338423809Y-132547344D01*
X338441465Y-132527865D01*
X338460944Y-132510209D01*
X338482061Y-132494548D01*
X338504610Y-132481033D01*
X338528376Y-132469792D01*
X338553129Y-132460935D01*
X338578631Y-132454548D01*
X338604637Y-132450690D01*
X338630895Y-132449400D01*
X339622105Y-132449400D01*
X339648363Y-132450690D01*
X339648363Y-132450690D01*
G37*
D32*
X339126500Y-133375400D03*
D31*
G36*
X342623363Y-134787490D02*
G01*
X342649369Y-134791348D01*
X342674871Y-134797735D01*
X342699624Y-134806592D01*
X342723390Y-134817833D01*
X342745939Y-134831348D01*
X342767056Y-134847009D01*
X342786535Y-134864665D01*
X342804191Y-134884144D01*
X342819852Y-134905261D01*
X342833367Y-134927810D01*
X342844608Y-134951576D01*
X342853465Y-134976329D01*
X342859852Y-135001831D01*
X342863710Y-135027837D01*
X342865000Y-135054095D01*
X342865000Y-136370305D01*
X342863710Y-136396563D01*
X342859852Y-136422569D01*
X342853465Y-136448071D01*
X342844608Y-136472824D01*
X342833367Y-136496590D01*
X342819852Y-136519139D01*
X342804191Y-136540256D01*
X342786535Y-136559735D01*
X342767056Y-136577391D01*
X342745939Y-136593052D01*
X342723390Y-136606567D01*
X342699624Y-136617808D01*
X342674871Y-136626665D01*
X342649369Y-136633052D01*
X342623363Y-136636910D01*
X342597105Y-136638200D01*
X341605895Y-136638200D01*
X341579637Y-136636910D01*
X341553631Y-136633052D01*
X341528129Y-136626665D01*
X341503376Y-136617808D01*
X341479610Y-136606567D01*
X341457061Y-136593052D01*
X341435944Y-136577391D01*
X341416465Y-136559735D01*
X341398809Y-136540256D01*
X341383148Y-136519139D01*
X341369633Y-136496590D01*
X341358392Y-136472824D01*
X341349535Y-136448071D01*
X341343148Y-136422569D01*
X341339290Y-136396563D01*
X341338000Y-136370305D01*
X341338000Y-135054095D01*
X341339290Y-135027837D01*
X341343148Y-135001831D01*
X341349535Y-134976329D01*
X341358392Y-134951576D01*
X341369633Y-134927810D01*
X341383148Y-134905261D01*
X341398809Y-134884144D01*
X341416465Y-134864665D01*
X341435944Y-134847009D01*
X341457061Y-134831348D01*
X341479610Y-134817833D01*
X341503376Y-134806592D01*
X341528129Y-134797735D01*
X341553631Y-134791348D01*
X341579637Y-134787490D01*
X341605895Y-134786200D01*
X342597105Y-134786200D01*
X342623363Y-134787490D01*
X342623363Y-134787490D01*
G37*
D32*
X342101500Y-135712200D03*
D31*
G36*
X339648363Y-134787490D02*
G01*
X339674369Y-134791348D01*
X339699871Y-134797735D01*
X339724624Y-134806592D01*
X339748390Y-134817833D01*
X339770939Y-134831348D01*
X339792056Y-134847009D01*
X339811535Y-134864665D01*
X339829191Y-134884144D01*
X339844852Y-134905261D01*
X339858367Y-134927810D01*
X339869608Y-134951576D01*
X339878465Y-134976329D01*
X339884852Y-135001831D01*
X339888710Y-135027837D01*
X339890000Y-135054095D01*
X339890000Y-136370305D01*
X339888710Y-136396563D01*
X339884852Y-136422569D01*
X339878465Y-136448071D01*
X339869608Y-136472824D01*
X339858367Y-136496590D01*
X339844852Y-136519139D01*
X339829191Y-136540256D01*
X339811535Y-136559735D01*
X339792056Y-136577391D01*
X339770939Y-136593052D01*
X339748390Y-136606567D01*
X339724624Y-136617808D01*
X339699871Y-136626665D01*
X339674369Y-136633052D01*
X339648363Y-136636910D01*
X339622105Y-136638200D01*
X338630895Y-136638200D01*
X338604637Y-136636910D01*
X338578631Y-136633052D01*
X338553129Y-136626665D01*
X338528376Y-136617808D01*
X338504610Y-136606567D01*
X338482061Y-136593052D01*
X338460944Y-136577391D01*
X338441465Y-136559735D01*
X338423809Y-136540256D01*
X338408148Y-136519139D01*
X338394633Y-136496590D01*
X338383392Y-136472824D01*
X338374535Y-136448071D01*
X338368148Y-136422569D01*
X338364290Y-136396563D01*
X338363000Y-136370305D01*
X338363000Y-135054095D01*
X338364290Y-135027837D01*
X338368148Y-135001831D01*
X338374535Y-134976329D01*
X338383392Y-134951576D01*
X338394633Y-134927810D01*
X338408148Y-134905261D01*
X338423809Y-134884144D01*
X338441465Y-134864665D01*
X338460944Y-134847009D01*
X338482061Y-134831348D01*
X338504610Y-134817833D01*
X338528376Y-134806592D01*
X338553129Y-134797735D01*
X338578631Y-134791348D01*
X338604637Y-134787490D01*
X338630895Y-134786200D01*
X339622105Y-134786200D01*
X339648363Y-134787490D01*
X339648363Y-134787490D01*
G37*
D32*
X339126500Y-135712200D03*
D31*
G36*
X342610663Y-137124290D02*
G01*
X342636669Y-137128148D01*
X342662171Y-137134535D01*
X342686924Y-137143392D01*
X342710690Y-137154633D01*
X342733239Y-137168148D01*
X342754356Y-137183809D01*
X342773835Y-137201465D01*
X342791491Y-137220944D01*
X342807152Y-137242061D01*
X342820667Y-137264610D01*
X342831908Y-137288376D01*
X342840765Y-137313129D01*
X342847152Y-137338631D01*
X342851010Y-137364637D01*
X342852300Y-137390895D01*
X342852300Y-138707105D01*
X342851010Y-138733363D01*
X342847152Y-138759369D01*
X342840765Y-138784871D01*
X342831908Y-138809624D01*
X342820667Y-138833390D01*
X342807152Y-138855939D01*
X342791491Y-138877056D01*
X342773835Y-138896535D01*
X342754356Y-138914191D01*
X342733239Y-138929852D01*
X342710690Y-138943367D01*
X342686924Y-138954608D01*
X342662171Y-138963465D01*
X342636669Y-138969852D01*
X342610663Y-138973710D01*
X342584405Y-138975000D01*
X341593195Y-138975000D01*
X341566937Y-138973710D01*
X341540931Y-138969852D01*
X341515429Y-138963465D01*
X341490676Y-138954608D01*
X341466910Y-138943367D01*
X341444361Y-138929852D01*
X341423244Y-138914191D01*
X341403765Y-138896535D01*
X341386109Y-138877056D01*
X341370448Y-138855939D01*
X341356933Y-138833390D01*
X341345692Y-138809624D01*
X341336835Y-138784871D01*
X341330448Y-138759369D01*
X341326590Y-138733363D01*
X341325300Y-138707105D01*
X341325300Y-137390895D01*
X341326590Y-137364637D01*
X341330448Y-137338631D01*
X341336835Y-137313129D01*
X341345692Y-137288376D01*
X341356933Y-137264610D01*
X341370448Y-137242061D01*
X341386109Y-137220944D01*
X341403765Y-137201465D01*
X341423244Y-137183809D01*
X341444361Y-137168148D01*
X341466910Y-137154633D01*
X341490676Y-137143392D01*
X341515429Y-137134535D01*
X341540931Y-137128148D01*
X341566937Y-137124290D01*
X341593195Y-137123000D01*
X342584405Y-137123000D01*
X342610663Y-137124290D01*
X342610663Y-137124290D01*
G37*
D32*
X342088800Y-138049000D03*
D31*
G36*
X339635663Y-137124290D02*
G01*
X339661669Y-137128148D01*
X339687171Y-137134535D01*
X339711924Y-137143392D01*
X339735690Y-137154633D01*
X339758239Y-137168148D01*
X339779356Y-137183809D01*
X339798835Y-137201465D01*
X339816491Y-137220944D01*
X339832152Y-137242061D01*
X339845667Y-137264610D01*
X339856908Y-137288376D01*
X339865765Y-137313129D01*
X339872152Y-137338631D01*
X339876010Y-137364637D01*
X339877300Y-137390895D01*
X339877300Y-138707105D01*
X339876010Y-138733363D01*
X339872152Y-138759369D01*
X339865765Y-138784871D01*
X339856908Y-138809624D01*
X339845667Y-138833390D01*
X339832152Y-138855939D01*
X339816491Y-138877056D01*
X339798835Y-138896535D01*
X339779356Y-138914191D01*
X339758239Y-138929852D01*
X339735690Y-138943367D01*
X339711924Y-138954608D01*
X339687171Y-138963465D01*
X339661669Y-138969852D01*
X339635663Y-138973710D01*
X339609405Y-138975000D01*
X338618195Y-138975000D01*
X338591937Y-138973710D01*
X338565931Y-138969852D01*
X338540429Y-138963465D01*
X338515676Y-138954608D01*
X338491910Y-138943367D01*
X338469361Y-138929852D01*
X338448244Y-138914191D01*
X338428765Y-138896535D01*
X338411109Y-138877056D01*
X338395448Y-138855939D01*
X338381933Y-138833390D01*
X338370692Y-138809624D01*
X338361835Y-138784871D01*
X338355448Y-138759369D01*
X338351590Y-138733363D01*
X338350300Y-138707105D01*
X338350300Y-137390895D01*
X338351590Y-137364637D01*
X338355448Y-137338631D01*
X338361835Y-137313129D01*
X338370692Y-137288376D01*
X338381933Y-137264610D01*
X338395448Y-137242061D01*
X338411109Y-137220944D01*
X338428765Y-137201465D01*
X338448244Y-137183809D01*
X338469361Y-137168148D01*
X338491910Y-137154633D01*
X338515676Y-137143392D01*
X338540429Y-137134535D01*
X338565931Y-137128148D01*
X338591937Y-137124290D01*
X338618195Y-137123000D01*
X339609405Y-137123000D01*
X339635663Y-137124290D01*
X339635663Y-137124290D01*
G37*
D32*
X339113800Y-138049000D03*
D12*
X330850000Y-160810000D03*
X330850000Y-165810000D03*
D29*
X347760000Y-86065000D03*
X347760000Y-88815000D03*
X347760000Y-91565000D03*
X347760000Y-94315000D03*
X345160000Y-84690000D03*
X345160000Y-87440000D03*
X345160000Y-95690000D03*
X345160000Y-92940000D03*
X345160000Y-90190000D03*
D35*
X353560000Y-90190000D03*
D30*
X355160000Y-102690000D03*
X355160000Y-77690000D03*
D29*
X347760000Y-53975000D03*
X347760000Y-56725000D03*
X347760000Y-59475000D03*
X347760000Y-62225000D03*
X345160000Y-52600000D03*
X345160000Y-55350000D03*
X345160000Y-63600000D03*
X345160000Y-60850000D03*
X345160000Y-58100000D03*
D35*
X353560000Y-58100000D03*
D30*
X355160000Y-70600000D03*
X355160000Y-45600000D03*
D18*
X279000000Y-151371300D03*
X327260000Y-166611300D03*
X281540000Y-151371300D03*
X324720000Y-166611300D03*
X284080000Y-151371300D03*
X322180000Y-166611300D03*
X286620000Y-151371300D03*
X319640000Y-166611300D03*
X289160000Y-151371300D03*
X317100000Y-166611300D03*
X291700000Y-151371300D03*
X314560000Y-166611300D03*
X294240000Y-151371300D03*
X312020000Y-166611300D03*
X296780000Y-151371300D03*
X309480000Y-166611300D03*
X299320000Y-151371300D03*
X306940000Y-166611300D03*
X301860000Y-151371300D03*
X304400000Y-166611300D03*
X304400000Y-151371300D03*
X301860000Y-166611300D03*
X306940000Y-151371300D03*
X299320000Y-166611300D03*
X309480000Y-151371300D03*
X296780000Y-166611300D03*
X312020000Y-151371300D03*
X294240000Y-166611300D03*
X314560000Y-151371300D03*
X291700000Y-166611300D03*
X317100000Y-151371300D03*
X289160000Y-166611300D03*
X319640000Y-151371300D03*
X286620000Y-166611300D03*
X322180000Y-151371300D03*
X284080000Y-166611300D03*
X324720000Y-151371300D03*
X281540000Y-166611300D03*
X327260000Y-151371300D03*
D19*
X279000000Y-166611300D03*
D12*
X334670400Y-193671200D03*
X334670400Y-188671200D03*
X246550000Y-99760000D03*
X246550000Y-104760000D03*
X208116000Y-99640600D03*
X213116000Y-99640600D03*
D18*
X195000000Y-152760000D03*
X233100000Y-168000000D03*
X197540000Y-152760000D03*
X230560000Y-168000000D03*
X200080000Y-152760000D03*
X228020000Y-168000000D03*
X202620000Y-152760000D03*
X225480000Y-168000000D03*
X205160000Y-152760000D03*
X222940000Y-168000000D03*
X207700000Y-152760000D03*
X220400000Y-168000000D03*
X210240000Y-152760000D03*
X217860000Y-168000000D03*
X212780000Y-152760000D03*
X215320000Y-168000000D03*
X215320000Y-152760000D03*
X212780000Y-168000000D03*
X217860000Y-152760000D03*
X210240000Y-168000000D03*
X220400000Y-152760000D03*
X207700000Y-168000000D03*
X222940000Y-152760000D03*
X205160000Y-168000000D03*
X225480000Y-152760000D03*
X202620000Y-168000000D03*
X228020000Y-152760000D03*
X200080000Y-168000000D03*
X230560000Y-152760000D03*
X197540000Y-168000000D03*
X233100000Y-152760000D03*
D19*
X195000000Y-168000000D03*
D12*
X191490600Y-157933400D03*
X191490600Y-152933400D03*
D18*
X215600000Y-71960000D03*
X218140000Y-71960000D03*
X220680000Y-71960000D03*
X223220000Y-71960000D03*
X225760000Y-71960000D03*
X228300000Y-71960000D03*
X230840000Y-71960000D03*
X233380000Y-71960000D03*
X235920000Y-71960000D03*
X238460000Y-71960000D03*
X241000000Y-71960000D03*
X243540000Y-71960000D03*
X246080000Y-71960000D03*
X248620000Y-71960000D03*
X251160000Y-71960000D03*
X215600000Y-66880000D03*
X218140000Y-66880000D03*
X220680000Y-66880000D03*
X223220000Y-66880000D03*
X225760000Y-66880000D03*
X228300000Y-66880000D03*
X230840000Y-66880000D03*
X233380000Y-66880000D03*
X235920000Y-66880000D03*
X238460000Y-66880000D03*
X241000000Y-66880000D03*
X243540000Y-66880000D03*
X246080000Y-66880000D03*
X248620000Y-66880000D03*
X251160000Y-66880000D03*
D12*
X191490600Y-181784000D03*
X191490600Y-176784000D03*
D27*
X170975200Y-181047600D03*
X166075200Y-181047600D03*
D24*
X165440200Y-125447000D03*
X183220200Y-133067000D03*
X167980200Y-125447000D03*
X180680200Y-133067000D03*
X170520200Y-125447000D03*
X178140200Y-133067000D03*
X173060200Y-125447000D03*
X175600200Y-133067000D03*
X175600200Y-125447000D03*
X173060200Y-133067000D03*
X178140200Y-125447000D03*
X170520200Y-133067000D03*
X180680200Y-125447000D03*
X167980200Y-133067000D03*
X183220200Y-125447000D03*
D13*
X165440200Y-133067000D03*
D36*
X146267800Y-102264200D03*
D37*
X148767800Y-107264200D03*
X146267800Y-97264200D03*
X143767800Y-107264200D03*
D38*
X155500000Y-50540000D03*
X170500000Y-50540000D03*
D39*
X159200000Y-45540000D03*
X166800000Y-45540000D03*
D40*
X158000000Y-58040000D03*
X168000000Y-58040000D03*
X170500000Y-55540000D03*
X155500000Y-55540000D03*
X163000000Y-55540000D03*
D12*
X278698800Y-84937800D03*
X278698800Y-89937800D03*
X162773200Y-101059200D03*
X162773200Y-96059200D03*
X165821200Y-101059200D03*
X165821200Y-96059200D03*
X168869200Y-101059200D03*
X168869200Y-96059200D03*
X171917200Y-101059200D03*
X171917200Y-96059200D03*
X76120000Y-65405000D03*
X71120000Y-65405000D03*
D18*
X66939000Y-196948000D03*
X115199000Y-212188000D03*
X69479000Y-196948000D03*
X112659000Y-212188000D03*
X72019000Y-196948000D03*
X110119000Y-212188000D03*
X74559000Y-196948000D03*
X107579000Y-212188000D03*
X77099000Y-196948000D03*
X105039000Y-212188000D03*
X79639000Y-196948000D03*
X102499000Y-212188000D03*
X82179000Y-196948000D03*
X99959000Y-212188000D03*
X84719000Y-196948000D03*
X97419000Y-212188000D03*
X87259000Y-196948000D03*
X94879000Y-212188000D03*
X89799000Y-196948000D03*
X92339000Y-212188000D03*
X92339000Y-196948000D03*
X89799000Y-212188000D03*
X94879000Y-196948000D03*
X87259000Y-212188000D03*
X97419000Y-196948000D03*
X84719000Y-212188000D03*
X99959000Y-196948000D03*
X82179000Y-212188000D03*
X102499000Y-196948000D03*
X79639000Y-212188000D03*
X105039000Y-196948000D03*
X77099000Y-212188000D03*
X107579000Y-196948000D03*
X74559000Y-212188000D03*
X110119000Y-196948000D03*
X72019000Y-212188000D03*
X112659000Y-196948000D03*
X69479000Y-212188000D03*
X115199000Y-196948000D03*
D19*
X66939000Y-212188000D03*
D22*
X125987800Y-131619200D03*
X118367800Y-154479200D03*
X125987800Y-134159200D03*
X118367800Y-151939200D03*
X125987800Y-136699200D03*
X118367800Y-149399200D03*
X125987800Y-139239200D03*
X118367800Y-146859200D03*
X125987800Y-141779200D03*
X118367800Y-144319200D03*
X125987800Y-144319200D03*
X118367800Y-141779200D03*
X125987800Y-146859200D03*
X118367800Y-139239200D03*
X125987800Y-149399200D03*
X118367800Y-136699200D03*
X125987800Y-151939200D03*
X118367800Y-134159200D03*
X125987800Y-154479200D03*
D23*
X118367800Y-131619200D03*
D12*
X275600000Y-110279400D03*
X275600000Y-105279400D03*
X275574600Y-97223800D03*
X275574600Y-92223800D03*
X223025800Y-125447000D03*
X228025800Y-125447000D03*
X59110000Y-196990000D03*
X59110000Y-191990000D03*
X83890000Y-132680000D03*
X83890000Y-137680000D03*
X89050000Y-114620000D03*
X89050000Y-119620000D03*
X88970000Y-102620000D03*
X88970000Y-107620000D03*
D18*
X65220400Y-100009000D03*
X85540400Y-107629000D03*
X67760400Y-100009000D03*
X83000400Y-107629000D03*
X70300400Y-100009000D03*
X80460400Y-107629000D03*
X72840400Y-100009000D03*
X77920400Y-107629000D03*
X75380400Y-100009000D03*
X75380400Y-107629000D03*
X77920400Y-100009000D03*
X72840400Y-107629000D03*
X80460400Y-100009000D03*
X70300400Y-107629000D03*
X83000400Y-100009000D03*
X67760400Y-107629000D03*
X85540400Y-100009000D03*
D19*
X65220400Y-107629000D03*
D18*
X65220400Y-112009000D03*
X85540400Y-119629000D03*
X67760400Y-112009000D03*
X83000400Y-119629000D03*
X70300400Y-112009000D03*
X80460400Y-119629000D03*
X72840400Y-112009000D03*
X77920400Y-119629000D03*
X75380400Y-112009000D03*
X75380400Y-119629000D03*
X77920400Y-112009000D03*
X72840400Y-119629000D03*
X80460400Y-112009000D03*
X70300400Y-119629000D03*
X83000400Y-112009000D03*
X67760400Y-119629000D03*
X85540400Y-112009000D03*
D19*
X65220400Y-119629000D03*
D31*
G36*
X92601363Y-138482690D02*
G01*
X92627369Y-138486548D01*
X92652871Y-138492935D01*
X92677624Y-138501792D01*
X92701390Y-138513033D01*
X92723939Y-138526548D01*
X92745056Y-138542209D01*
X92764535Y-138559865D01*
X92782191Y-138579344D01*
X92797852Y-138600461D01*
X92811367Y-138623010D01*
X92822608Y-138646776D01*
X92831465Y-138671529D01*
X92837852Y-138697031D01*
X92841710Y-138723037D01*
X92843000Y-138749295D01*
X92843000Y-139740505D01*
X92841710Y-139766763D01*
X92837852Y-139792769D01*
X92831465Y-139818271D01*
X92822608Y-139843024D01*
X92811367Y-139866790D01*
X92797852Y-139889339D01*
X92782191Y-139910456D01*
X92764535Y-139929935D01*
X92745056Y-139947591D01*
X92723939Y-139963252D01*
X92701390Y-139976767D01*
X92677624Y-139988008D01*
X92652871Y-139996865D01*
X92627369Y-140003252D01*
X92601363Y-140007110D01*
X92575105Y-140008400D01*
X91258895Y-140008400D01*
X91232637Y-140007110D01*
X91206631Y-140003252D01*
X91181129Y-139996865D01*
X91156376Y-139988008D01*
X91132610Y-139976767D01*
X91110061Y-139963252D01*
X91088944Y-139947591D01*
X91069465Y-139929935D01*
X91051809Y-139910456D01*
X91036148Y-139889339D01*
X91022633Y-139866790D01*
X91011392Y-139843024D01*
X91002535Y-139818271D01*
X90996148Y-139792769D01*
X90992290Y-139766763D01*
X90991000Y-139740505D01*
X90991000Y-138749295D01*
X90992290Y-138723037D01*
X90996148Y-138697031D01*
X91002535Y-138671529D01*
X91011392Y-138646776D01*
X91022633Y-138623010D01*
X91036148Y-138600461D01*
X91051809Y-138579344D01*
X91069465Y-138559865D01*
X91088944Y-138542209D01*
X91110061Y-138526548D01*
X91132610Y-138513033D01*
X91156376Y-138501792D01*
X91181129Y-138492935D01*
X91206631Y-138486548D01*
X91232637Y-138482690D01*
X91258895Y-138481400D01*
X92575105Y-138481400D01*
X92601363Y-138482690D01*
X92601363Y-138482690D01*
G37*
D32*
X91917000Y-139244900D03*
D31*
G36*
X92601363Y-135507690D02*
G01*
X92627369Y-135511548D01*
X92652871Y-135517935D01*
X92677624Y-135526792D01*
X92701390Y-135538033D01*
X92723939Y-135551548D01*
X92745056Y-135567209D01*
X92764535Y-135584865D01*
X92782191Y-135604344D01*
X92797852Y-135625461D01*
X92811367Y-135648010D01*
X92822608Y-135671776D01*
X92831465Y-135696529D01*
X92837852Y-135722031D01*
X92841710Y-135748037D01*
X92843000Y-135774295D01*
X92843000Y-136765505D01*
X92841710Y-136791763D01*
X92837852Y-136817769D01*
X92831465Y-136843271D01*
X92822608Y-136868024D01*
X92811367Y-136891790D01*
X92797852Y-136914339D01*
X92782191Y-136935456D01*
X92764535Y-136954935D01*
X92745056Y-136972591D01*
X92723939Y-136988252D01*
X92701390Y-137001767D01*
X92677624Y-137013008D01*
X92652871Y-137021865D01*
X92627369Y-137028252D01*
X92601363Y-137032110D01*
X92575105Y-137033400D01*
X91258895Y-137033400D01*
X91232637Y-137032110D01*
X91206631Y-137028252D01*
X91181129Y-137021865D01*
X91156376Y-137013008D01*
X91132610Y-137001767D01*
X91110061Y-136988252D01*
X91088944Y-136972591D01*
X91069465Y-136954935D01*
X91051809Y-136935456D01*
X91036148Y-136914339D01*
X91022633Y-136891790D01*
X91011392Y-136868024D01*
X91002535Y-136843271D01*
X90996148Y-136817769D01*
X90992290Y-136791763D01*
X90991000Y-136765505D01*
X90991000Y-135774295D01*
X90992290Y-135748037D01*
X90996148Y-135722031D01*
X91002535Y-135696529D01*
X91011392Y-135671776D01*
X91022633Y-135648010D01*
X91036148Y-135625461D01*
X91051809Y-135604344D01*
X91069465Y-135584865D01*
X91088944Y-135567209D01*
X91110061Y-135551548D01*
X91132610Y-135538033D01*
X91156376Y-135526792D01*
X91181129Y-135517935D01*
X91206631Y-135511548D01*
X91232637Y-135507690D01*
X91258895Y-135506400D01*
X92575105Y-135506400D01*
X92601363Y-135507690D01*
X92601363Y-135507690D01*
G37*
D32*
X91917000Y-136269900D03*
D31*
G36*
X94912763Y-138482690D02*
G01*
X94938769Y-138486548D01*
X94964271Y-138492935D01*
X94989024Y-138501792D01*
X95012790Y-138513033D01*
X95035339Y-138526548D01*
X95056456Y-138542209D01*
X95075935Y-138559865D01*
X95093591Y-138579344D01*
X95109252Y-138600461D01*
X95122767Y-138623010D01*
X95134008Y-138646776D01*
X95142865Y-138671529D01*
X95149252Y-138697031D01*
X95153110Y-138723037D01*
X95154400Y-138749295D01*
X95154400Y-139740505D01*
X95153110Y-139766763D01*
X95149252Y-139792769D01*
X95142865Y-139818271D01*
X95134008Y-139843024D01*
X95122767Y-139866790D01*
X95109252Y-139889339D01*
X95093591Y-139910456D01*
X95075935Y-139929935D01*
X95056456Y-139947591D01*
X95035339Y-139963252D01*
X95012790Y-139976767D01*
X94989024Y-139988008D01*
X94964271Y-139996865D01*
X94938769Y-140003252D01*
X94912763Y-140007110D01*
X94886505Y-140008400D01*
X93570295Y-140008400D01*
X93544037Y-140007110D01*
X93518031Y-140003252D01*
X93492529Y-139996865D01*
X93467776Y-139988008D01*
X93444010Y-139976767D01*
X93421461Y-139963252D01*
X93400344Y-139947591D01*
X93380865Y-139929935D01*
X93363209Y-139910456D01*
X93347548Y-139889339D01*
X93334033Y-139866790D01*
X93322792Y-139843024D01*
X93313935Y-139818271D01*
X93307548Y-139792769D01*
X93303690Y-139766763D01*
X93302400Y-139740505D01*
X93302400Y-138749295D01*
X93303690Y-138723037D01*
X93307548Y-138697031D01*
X93313935Y-138671529D01*
X93322792Y-138646776D01*
X93334033Y-138623010D01*
X93347548Y-138600461D01*
X93363209Y-138579344D01*
X93380865Y-138559865D01*
X93400344Y-138542209D01*
X93421461Y-138526548D01*
X93444010Y-138513033D01*
X93467776Y-138501792D01*
X93492529Y-138492935D01*
X93518031Y-138486548D01*
X93544037Y-138482690D01*
X93570295Y-138481400D01*
X94886505Y-138481400D01*
X94912763Y-138482690D01*
X94912763Y-138482690D01*
G37*
D32*
X94228400Y-139244900D03*
D31*
G36*
X94912763Y-135507690D02*
G01*
X94938769Y-135511548D01*
X94964271Y-135517935D01*
X94989024Y-135526792D01*
X95012790Y-135538033D01*
X95035339Y-135551548D01*
X95056456Y-135567209D01*
X95075935Y-135584865D01*
X95093591Y-135604344D01*
X95109252Y-135625461D01*
X95122767Y-135648010D01*
X95134008Y-135671776D01*
X95142865Y-135696529D01*
X95149252Y-135722031D01*
X95153110Y-135748037D01*
X95154400Y-135774295D01*
X95154400Y-136765505D01*
X95153110Y-136791763D01*
X95149252Y-136817769D01*
X95142865Y-136843271D01*
X95134008Y-136868024D01*
X95122767Y-136891790D01*
X95109252Y-136914339D01*
X95093591Y-136935456D01*
X95075935Y-136954935D01*
X95056456Y-136972591D01*
X95035339Y-136988252D01*
X95012790Y-137001767D01*
X94989024Y-137013008D01*
X94964271Y-137021865D01*
X94938769Y-137028252D01*
X94912763Y-137032110D01*
X94886505Y-137033400D01*
X93570295Y-137033400D01*
X93544037Y-137032110D01*
X93518031Y-137028252D01*
X93492529Y-137021865D01*
X93467776Y-137013008D01*
X93444010Y-137001767D01*
X93421461Y-136988252D01*
X93400344Y-136972591D01*
X93380865Y-136954935D01*
X93363209Y-136935456D01*
X93347548Y-136914339D01*
X93334033Y-136891790D01*
X93322792Y-136868024D01*
X93313935Y-136843271D01*
X93307548Y-136817769D01*
X93303690Y-136791763D01*
X93302400Y-136765505D01*
X93302400Y-135774295D01*
X93303690Y-135748037D01*
X93307548Y-135722031D01*
X93313935Y-135696529D01*
X93322792Y-135671776D01*
X93334033Y-135648010D01*
X93347548Y-135625461D01*
X93363209Y-135604344D01*
X93380865Y-135584865D01*
X93400344Y-135567209D01*
X93421461Y-135551548D01*
X93444010Y-135538033D01*
X93467776Y-135526792D01*
X93492529Y-135517935D01*
X93518031Y-135511548D01*
X93544037Y-135507690D01*
X93570295Y-135506400D01*
X94886505Y-135506400D01*
X94912763Y-135507690D01*
X94912763Y-135507690D01*
G37*
D32*
X94228400Y-136269900D03*
D31*
G36*
X97224163Y-138482690D02*
G01*
X97250169Y-138486548D01*
X97275671Y-138492935D01*
X97300424Y-138501792D01*
X97324190Y-138513033D01*
X97346739Y-138526548D01*
X97367856Y-138542209D01*
X97387335Y-138559865D01*
X97404991Y-138579344D01*
X97420652Y-138600461D01*
X97434167Y-138623010D01*
X97445408Y-138646776D01*
X97454265Y-138671529D01*
X97460652Y-138697031D01*
X97464510Y-138723037D01*
X97465800Y-138749295D01*
X97465800Y-139740505D01*
X97464510Y-139766763D01*
X97460652Y-139792769D01*
X97454265Y-139818271D01*
X97445408Y-139843024D01*
X97434167Y-139866790D01*
X97420652Y-139889339D01*
X97404991Y-139910456D01*
X97387335Y-139929935D01*
X97367856Y-139947591D01*
X97346739Y-139963252D01*
X97324190Y-139976767D01*
X97300424Y-139988008D01*
X97275671Y-139996865D01*
X97250169Y-140003252D01*
X97224163Y-140007110D01*
X97197905Y-140008400D01*
X95881695Y-140008400D01*
X95855437Y-140007110D01*
X95829431Y-140003252D01*
X95803929Y-139996865D01*
X95779176Y-139988008D01*
X95755410Y-139976767D01*
X95732861Y-139963252D01*
X95711744Y-139947591D01*
X95692265Y-139929935D01*
X95674609Y-139910456D01*
X95658948Y-139889339D01*
X95645433Y-139866790D01*
X95634192Y-139843024D01*
X95625335Y-139818271D01*
X95618948Y-139792769D01*
X95615090Y-139766763D01*
X95613800Y-139740505D01*
X95613800Y-138749295D01*
X95615090Y-138723037D01*
X95618948Y-138697031D01*
X95625335Y-138671529D01*
X95634192Y-138646776D01*
X95645433Y-138623010D01*
X95658948Y-138600461D01*
X95674609Y-138579344D01*
X95692265Y-138559865D01*
X95711744Y-138542209D01*
X95732861Y-138526548D01*
X95755410Y-138513033D01*
X95779176Y-138501792D01*
X95803929Y-138492935D01*
X95829431Y-138486548D01*
X95855437Y-138482690D01*
X95881695Y-138481400D01*
X97197905Y-138481400D01*
X97224163Y-138482690D01*
X97224163Y-138482690D01*
G37*
D32*
X96539800Y-139244900D03*
D31*
G36*
X97224163Y-135507690D02*
G01*
X97250169Y-135511548D01*
X97275671Y-135517935D01*
X97300424Y-135526792D01*
X97324190Y-135538033D01*
X97346739Y-135551548D01*
X97367856Y-135567209D01*
X97387335Y-135584865D01*
X97404991Y-135604344D01*
X97420652Y-135625461D01*
X97434167Y-135648010D01*
X97445408Y-135671776D01*
X97454265Y-135696529D01*
X97460652Y-135722031D01*
X97464510Y-135748037D01*
X97465800Y-135774295D01*
X97465800Y-136765505D01*
X97464510Y-136791763D01*
X97460652Y-136817769D01*
X97454265Y-136843271D01*
X97445408Y-136868024D01*
X97434167Y-136891790D01*
X97420652Y-136914339D01*
X97404991Y-136935456D01*
X97387335Y-136954935D01*
X97367856Y-136972591D01*
X97346739Y-136988252D01*
X97324190Y-137001767D01*
X97300424Y-137013008D01*
X97275671Y-137021865D01*
X97250169Y-137028252D01*
X97224163Y-137032110D01*
X97197905Y-137033400D01*
X95881695Y-137033400D01*
X95855437Y-137032110D01*
X95829431Y-137028252D01*
X95803929Y-137021865D01*
X95779176Y-137013008D01*
X95755410Y-137001767D01*
X95732861Y-136988252D01*
X95711744Y-136972591D01*
X95692265Y-136954935D01*
X95674609Y-136935456D01*
X95658948Y-136914339D01*
X95645433Y-136891790D01*
X95634192Y-136868024D01*
X95625335Y-136843271D01*
X95618948Y-136817769D01*
X95615090Y-136791763D01*
X95613800Y-136765505D01*
X95613800Y-135774295D01*
X95615090Y-135748037D01*
X95618948Y-135722031D01*
X95625335Y-135696529D01*
X95634192Y-135671776D01*
X95645433Y-135648010D01*
X95658948Y-135625461D01*
X95674609Y-135604344D01*
X95692265Y-135584865D01*
X95711744Y-135567209D01*
X95732861Y-135551548D01*
X95755410Y-135538033D01*
X95779176Y-135526792D01*
X95803929Y-135517935D01*
X95829431Y-135511548D01*
X95855437Y-135507690D01*
X95881695Y-135506400D01*
X97197905Y-135506400D01*
X97224163Y-135507690D01*
X97224163Y-135507690D01*
G37*
D32*
X96539800Y-136269900D03*
D31*
G36*
X99535563Y-138482690D02*
G01*
X99561569Y-138486548D01*
X99587071Y-138492935D01*
X99611824Y-138501792D01*
X99635590Y-138513033D01*
X99658139Y-138526548D01*
X99679256Y-138542209D01*
X99698735Y-138559865D01*
X99716391Y-138579344D01*
X99732052Y-138600461D01*
X99745567Y-138623010D01*
X99756808Y-138646776D01*
X99765665Y-138671529D01*
X99772052Y-138697031D01*
X99775910Y-138723037D01*
X99777200Y-138749295D01*
X99777200Y-139740505D01*
X99775910Y-139766763D01*
X99772052Y-139792769D01*
X99765665Y-139818271D01*
X99756808Y-139843024D01*
X99745567Y-139866790D01*
X99732052Y-139889339D01*
X99716391Y-139910456D01*
X99698735Y-139929935D01*
X99679256Y-139947591D01*
X99658139Y-139963252D01*
X99635590Y-139976767D01*
X99611824Y-139988008D01*
X99587071Y-139996865D01*
X99561569Y-140003252D01*
X99535563Y-140007110D01*
X99509305Y-140008400D01*
X98193095Y-140008400D01*
X98166837Y-140007110D01*
X98140831Y-140003252D01*
X98115329Y-139996865D01*
X98090576Y-139988008D01*
X98066810Y-139976767D01*
X98044261Y-139963252D01*
X98023144Y-139947591D01*
X98003665Y-139929935D01*
X97986009Y-139910456D01*
X97970348Y-139889339D01*
X97956833Y-139866790D01*
X97945592Y-139843024D01*
X97936735Y-139818271D01*
X97930348Y-139792769D01*
X97926490Y-139766763D01*
X97925200Y-139740505D01*
X97925200Y-138749295D01*
X97926490Y-138723037D01*
X97930348Y-138697031D01*
X97936735Y-138671529D01*
X97945592Y-138646776D01*
X97956833Y-138623010D01*
X97970348Y-138600461D01*
X97986009Y-138579344D01*
X98003665Y-138559865D01*
X98023144Y-138542209D01*
X98044261Y-138526548D01*
X98066810Y-138513033D01*
X98090576Y-138501792D01*
X98115329Y-138492935D01*
X98140831Y-138486548D01*
X98166837Y-138482690D01*
X98193095Y-138481400D01*
X99509305Y-138481400D01*
X99535563Y-138482690D01*
X99535563Y-138482690D01*
G37*
D32*
X98851200Y-139244900D03*
D31*
G36*
X99535563Y-135507690D02*
G01*
X99561569Y-135511548D01*
X99587071Y-135517935D01*
X99611824Y-135526792D01*
X99635590Y-135538033D01*
X99658139Y-135551548D01*
X99679256Y-135567209D01*
X99698735Y-135584865D01*
X99716391Y-135604344D01*
X99732052Y-135625461D01*
X99745567Y-135648010D01*
X99756808Y-135671776D01*
X99765665Y-135696529D01*
X99772052Y-135722031D01*
X99775910Y-135748037D01*
X99777200Y-135774295D01*
X99777200Y-136765505D01*
X99775910Y-136791763D01*
X99772052Y-136817769D01*
X99765665Y-136843271D01*
X99756808Y-136868024D01*
X99745567Y-136891790D01*
X99732052Y-136914339D01*
X99716391Y-136935456D01*
X99698735Y-136954935D01*
X99679256Y-136972591D01*
X99658139Y-136988252D01*
X99635590Y-137001767D01*
X99611824Y-137013008D01*
X99587071Y-137021865D01*
X99561569Y-137028252D01*
X99535563Y-137032110D01*
X99509305Y-137033400D01*
X98193095Y-137033400D01*
X98166837Y-137032110D01*
X98140831Y-137028252D01*
X98115329Y-137021865D01*
X98090576Y-137013008D01*
X98066810Y-137001767D01*
X98044261Y-136988252D01*
X98023144Y-136972591D01*
X98003665Y-136954935D01*
X97986009Y-136935456D01*
X97970348Y-136914339D01*
X97956833Y-136891790D01*
X97945592Y-136868024D01*
X97936735Y-136843271D01*
X97930348Y-136817769D01*
X97926490Y-136791763D01*
X97925200Y-136765505D01*
X97925200Y-135774295D01*
X97926490Y-135748037D01*
X97930348Y-135722031D01*
X97936735Y-135696529D01*
X97945592Y-135671776D01*
X97956833Y-135648010D01*
X97970348Y-135625461D01*
X97986009Y-135604344D01*
X98003665Y-135584865D01*
X98023144Y-135567209D01*
X98044261Y-135551548D01*
X98066810Y-135538033D01*
X98090576Y-135526792D01*
X98115329Y-135517935D01*
X98140831Y-135511548D01*
X98166837Y-135507690D01*
X98193095Y-135506400D01*
X99509305Y-135506400D01*
X99535563Y-135507690D01*
X99535563Y-135507690D01*
G37*
D32*
X98851200Y-136269900D03*
D31*
G36*
X92486963Y-127482690D02*
G01*
X92512969Y-127486548D01*
X92538471Y-127492935D01*
X92563224Y-127501792D01*
X92586990Y-127513033D01*
X92609539Y-127526548D01*
X92630656Y-127542209D01*
X92650135Y-127559865D01*
X92667791Y-127579344D01*
X92683452Y-127600461D01*
X92696967Y-127623010D01*
X92708208Y-127646776D01*
X92717065Y-127671529D01*
X92723452Y-127697031D01*
X92727310Y-127723037D01*
X92728600Y-127749295D01*
X92728600Y-128740505D01*
X92727310Y-128766763D01*
X92723452Y-128792769D01*
X92717065Y-128818271D01*
X92708208Y-128843024D01*
X92696967Y-128866790D01*
X92683452Y-128889339D01*
X92667791Y-128910456D01*
X92650135Y-128929935D01*
X92630656Y-128947591D01*
X92609539Y-128963252D01*
X92586990Y-128976767D01*
X92563224Y-128988008D01*
X92538471Y-128996865D01*
X92512969Y-129003252D01*
X92486963Y-129007110D01*
X92460705Y-129008400D01*
X91144495Y-129008400D01*
X91118237Y-129007110D01*
X91092231Y-129003252D01*
X91066729Y-128996865D01*
X91041976Y-128988008D01*
X91018210Y-128976767D01*
X90995661Y-128963252D01*
X90974544Y-128947591D01*
X90955065Y-128929935D01*
X90937409Y-128910456D01*
X90921748Y-128889339D01*
X90908233Y-128866790D01*
X90896992Y-128843024D01*
X90888135Y-128818271D01*
X90881748Y-128792769D01*
X90877890Y-128766763D01*
X90876600Y-128740505D01*
X90876600Y-127749295D01*
X90877890Y-127723037D01*
X90881748Y-127697031D01*
X90888135Y-127671529D01*
X90896992Y-127646776D01*
X90908233Y-127623010D01*
X90921748Y-127600461D01*
X90937409Y-127579344D01*
X90955065Y-127559865D01*
X90974544Y-127542209D01*
X90995661Y-127526548D01*
X91018210Y-127513033D01*
X91041976Y-127501792D01*
X91066729Y-127492935D01*
X91092231Y-127486548D01*
X91118237Y-127482690D01*
X91144495Y-127481400D01*
X92460705Y-127481400D01*
X92486963Y-127482690D01*
X92486963Y-127482690D01*
G37*
D32*
X91802600Y-128244900D03*
D31*
G36*
X92486963Y-124507690D02*
G01*
X92512969Y-124511548D01*
X92538471Y-124517935D01*
X92563224Y-124526792D01*
X92586990Y-124538033D01*
X92609539Y-124551548D01*
X92630656Y-124567209D01*
X92650135Y-124584865D01*
X92667791Y-124604344D01*
X92683452Y-124625461D01*
X92696967Y-124648010D01*
X92708208Y-124671776D01*
X92717065Y-124696529D01*
X92723452Y-124722031D01*
X92727310Y-124748037D01*
X92728600Y-124774295D01*
X92728600Y-125765505D01*
X92727310Y-125791763D01*
X92723452Y-125817769D01*
X92717065Y-125843271D01*
X92708208Y-125868024D01*
X92696967Y-125891790D01*
X92683452Y-125914339D01*
X92667791Y-125935456D01*
X92650135Y-125954935D01*
X92630656Y-125972591D01*
X92609539Y-125988252D01*
X92586990Y-126001767D01*
X92563224Y-126013008D01*
X92538471Y-126021865D01*
X92512969Y-126028252D01*
X92486963Y-126032110D01*
X92460705Y-126033400D01*
X91144495Y-126033400D01*
X91118237Y-126032110D01*
X91092231Y-126028252D01*
X91066729Y-126021865D01*
X91041976Y-126013008D01*
X91018210Y-126001767D01*
X90995661Y-125988252D01*
X90974544Y-125972591D01*
X90955065Y-125954935D01*
X90937409Y-125935456D01*
X90921748Y-125914339D01*
X90908233Y-125891790D01*
X90896992Y-125868024D01*
X90888135Y-125843271D01*
X90881748Y-125817769D01*
X90877890Y-125791763D01*
X90876600Y-125765505D01*
X90876600Y-124774295D01*
X90877890Y-124748037D01*
X90881748Y-124722031D01*
X90888135Y-124696529D01*
X90896992Y-124671776D01*
X90908233Y-124648010D01*
X90921748Y-124625461D01*
X90937409Y-124604344D01*
X90955065Y-124584865D01*
X90974544Y-124567209D01*
X90995661Y-124551548D01*
X91018210Y-124538033D01*
X91041976Y-124526792D01*
X91066729Y-124517935D01*
X91092231Y-124511548D01*
X91118237Y-124507690D01*
X91144495Y-124506400D01*
X92460705Y-124506400D01*
X92486963Y-124507690D01*
X92486963Y-124507690D01*
G37*
D32*
X91802600Y-125269900D03*
D31*
G36*
X94798363Y-127482690D02*
G01*
X94824369Y-127486548D01*
X94849871Y-127492935D01*
X94874624Y-127501792D01*
X94898390Y-127513033D01*
X94920939Y-127526548D01*
X94942056Y-127542209D01*
X94961535Y-127559865D01*
X94979191Y-127579344D01*
X94994852Y-127600461D01*
X95008367Y-127623010D01*
X95019608Y-127646776D01*
X95028465Y-127671529D01*
X95034852Y-127697031D01*
X95038710Y-127723037D01*
X95040000Y-127749295D01*
X95040000Y-128740505D01*
X95038710Y-128766763D01*
X95034852Y-128792769D01*
X95028465Y-128818271D01*
X95019608Y-128843024D01*
X95008367Y-128866790D01*
X94994852Y-128889339D01*
X94979191Y-128910456D01*
X94961535Y-128929935D01*
X94942056Y-128947591D01*
X94920939Y-128963252D01*
X94898390Y-128976767D01*
X94874624Y-128988008D01*
X94849871Y-128996865D01*
X94824369Y-129003252D01*
X94798363Y-129007110D01*
X94772105Y-129008400D01*
X93455895Y-129008400D01*
X93429637Y-129007110D01*
X93403631Y-129003252D01*
X93378129Y-128996865D01*
X93353376Y-128988008D01*
X93329610Y-128976767D01*
X93307061Y-128963252D01*
X93285944Y-128947591D01*
X93266465Y-128929935D01*
X93248809Y-128910456D01*
X93233148Y-128889339D01*
X93219633Y-128866790D01*
X93208392Y-128843024D01*
X93199535Y-128818271D01*
X93193148Y-128792769D01*
X93189290Y-128766763D01*
X93188000Y-128740505D01*
X93188000Y-127749295D01*
X93189290Y-127723037D01*
X93193148Y-127697031D01*
X93199535Y-127671529D01*
X93208392Y-127646776D01*
X93219633Y-127623010D01*
X93233148Y-127600461D01*
X93248809Y-127579344D01*
X93266465Y-127559865D01*
X93285944Y-127542209D01*
X93307061Y-127526548D01*
X93329610Y-127513033D01*
X93353376Y-127501792D01*
X93378129Y-127492935D01*
X93403631Y-127486548D01*
X93429637Y-127482690D01*
X93455895Y-127481400D01*
X94772105Y-127481400D01*
X94798363Y-127482690D01*
X94798363Y-127482690D01*
G37*
D32*
X94114000Y-128244900D03*
D31*
G36*
X94798363Y-124507690D02*
G01*
X94824369Y-124511548D01*
X94849871Y-124517935D01*
X94874624Y-124526792D01*
X94898390Y-124538033D01*
X94920939Y-124551548D01*
X94942056Y-124567209D01*
X94961535Y-124584865D01*
X94979191Y-124604344D01*
X94994852Y-124625461D01*
X95008367Y-124648010D01*
X95019608Y-124671776D01*
X95028465Y-124696529D01*
X95034852Y-124722031D01*
X95038710Y-124748037D01*
X95040000Y-124774295D01*
X95040000Y-125765505D01*
X95038710Y-125791763D01*
X95034852Y-125817769D01*
X95028465Y-125843271D01*
X95019608Y-125868024D01*
X95008367Y-125891790D01*
X94994852Y-125914339D01*
X94979191Y-125935456D01*
X94961535Y-125954935D01*
X94942056Y-125972591D01*
X94920939Y-125988252D01*
X94898390Y-126001767D01*
X94874624Y-126013008D01*
X94849871Y-126021865D01*
X94824369Y-126028252D01*
X94798363Y-126032110D01*
X94772105Y-126033400D01*
X93455895Y-126033400D01*
X93429637Y-126032110D01*
X93403631Y-126028252D01*
X93378129Y-126021865D01*
X93353376Y-126013008D01*
X93329610Y-126001767D01*
X93307061Y-125988252D01*
X93285944Y-125972591D01*
X93266465Y-125954935D01*
X93248809Y-125935456D01*
X93233148Y-125914339D01*
X93219633Y-125891790D01*
X93208392Y-125868024D01*
X93199535Y-125843271D01*
X93193148Y-125817769D01*
X93189290Y-125791763D01*
X93188000Y-125765505D01*
X93188000Y-124774295D01*
X93189290Y-124748037D01*
X93193148Y-124722031D01*
X93199535Y-124696529D01*
X93208392Y-124671776D01*
X93219633Y-124648010D01*
X93233148Y-124625461D01*
X93248809Y-124604344D01*
X93266465Y-124584865D01*
X93285944Y-124567209D01*
X93307061Y-124551548D01*
X93329610Y-124538033D01*
X93353376Y-124526792D01*
X93378129Y-124517935D01*
X93403631Y-124511548D01*
X93429637Y-124507690D01*
X93455895Y-124506400D01*
X94772105Y-124506400D01*
X94798363Y-124507690D01*
X94798363Y-124507690D01*
G37*
D32*
X94114000Y-125269900D03*
D31*
G36*
X97109763Y-127482690D02*
G01*
X97135769Y-127486548D01*
X97161271Y-127492935D01*
X97186024Y-127501792D01*
X97209790Y-127513033D01*
X97232339Y-127526548D01*
X97253456Y-127542209D01*
X97272935Y-127559865D01*
X97290591Y-127579344D01*
X97306252Y-127600461D01*
X97319767Y-127623010D01*
X97331008Y-127646776D01*
X97339865Y-127671529D01*
X97346252Y-127697031D01*
X97350110Y-127723037D01*
X97351400Y-127749295D01*
X97351400Y-128740505D01*
X97350110Y-128766763D01*
X97346252Y-128792769D01*
X97339865Y-128818271D01*
X97331008Y-128843024D01*
X97319767Y-128866790D01*
X97306252Y-128889339D01*
X97290591Y-128910456D01*
X97272935Y-128929935D01*
X97253456Y-128947591D01*
X97232339Y-128963252D01*
X97209790Y-128976767D01*
X97186024Y-128988008D01*
X97161271Y-128996865D01*
X97135769Y-129003252D01*
X97109763Y-129007110D01*
X97083505Y-129008400D01*
X95767295Y-129008400D01*
X95741037Y-129007110D01*
X95715031Y-129003252D01*
X95689529Y-128996865D01*
X95664776Y-128988008D01*
X95641010Y-128976767D01*
X95618461Y-128963252D01*
X95597344Y-128947591D01*
X95577865Y-128929935D01*
X95560209Y-128910456D01*
X95544548Y-128889339D01*
X95531033Y-128866790D01*
X95519792Y-128843024D01*
X95510935Y-128818271D01*
X95504548Y-128792769D01*
X95500690Y-128766763D01*
X95499400Y-128740505D01*
X95499400Y-127749295D01*
X95500690Y-127723037D01*
X95504548Y-127697031D01*
X95510935Y-127671529D01*
X95519792Y-127646776D01*
X95531033Y-127623010D01*
X95544548Y-127600461D01*
X95560209Y-127579344D01*
X95577865Y-127559865D01*
X95597344Y-127542209D01*
X95618461Y-127526548D01*
X95641010Y-127513033D01*
X95664776Y-127501792D01*
X95689529Y-127492935D01*
X95715031Y-127486548D01*
X95741037Y-127482690D01*
X95767295Y-127481400D01*
X97083505Y-127481400D01*
X97109763Y-127482690D01*
X97109763Y-127482690D01*
G37*
D32*
X96425400Y-128244900D03*
D31*
G36*
X97109763Y-124507690D02*
G01*
X97135769Y-124511548D01*
X97161271Y-124517935D01*
X97186024Y-124526792D01*
X97209790Y-124538033D01*
X97232339Y-124551548D01*
X97253456Y-124567209D01*
X97272935Y-124584865D01*
X97290591Y-124604344D01*
X97306252Y-124625461D01*
X97319767Y-124648010D01*
X97331008Y-124671776D01*
X97339865Y-124696529D01*
X97346252Y-124722031D01*
X97350110Y-124748037D01*
X97351400Y-124774295D01*
X97351400Y-125765505D01*
X97350110Y-125791763D01*
X97346252Y-125817769D01*
X97339865Y-125843271D01*
X97331008Y-125868024D01*
X97319767Y-125891790D01*
X97306252Y-125914339D01*
X97290591Y-125935456D01*
X97272935Y-125954935D01*
X97253456Y-125972591D01*
X97232339Y-125988252D01*
X97209790Y-126001767D01*
X97186024Y-126013008D01*
X97161271Y-126021865D01*
X97135769Y-126028252D01*
X97109763Y-126032110D01*
X97083505Y-126033400D01*
X95767295Y-126033400D01*
X95741037Y-126032110D01*
X95715031Y-126028252D01*
X95689529Y-126021865D01*
X95664776Y-126013008D01*
X95641010Y-126001767D01*
X95618461Y-125988252D01*
X95597344Y-125972591D01*
X95577865Y-125954935D01*
X95560209Y-125935456D01*
X95544548Y-125914339D01*
X95531033Y-125891790D01*
X95519792Y-125868024D01*
X95510935Y-125843271D01*
X95504548Y-125817769D01*
X95500690Y-125791763D01*
X95499400Y-125765505D01*
X95499400Y-124774295D01*
X95500690Y-124748037D01*
X95504548Y-124722031D01*
X95510935Y-124696529D01*
X95519792Y-124671776D01*
X95531033Y-124648010D01*
X95544548Y-124625461D01*
X95560209Y-124604344D01*
X95577865Y-124584865D01*
X95597344Y-124567209D01*
X95618461Y-124551548D01*
X95641010Y-124538033D01*
X95664776Y-124526792D01*
X95689529Y-124517935D01*
X95715031Y-124511548D01*
X95741037Y-124507690D01*
X95767295Y-124506400D01*
X97083505Y-124506400D01*
X97109763Y-124507690D01*
X97109763Y-124507690D01*
G37*
D32*
X96425400Y-125269900D03*
D31*
G36*
X99421163Y-127482690D02*
G01*
X99447169Y-127486548D01*
X99472671Y-127492935D01*
X99497424Y-127501792D01*
X99521190Y-127513033D01*
X99543739Y-127526548D01*
X99564856Y-127542209D01*
X99584335Y-127559865D01*
X99601991Y-127579344D01*
X99617652Y-127600461D01*
X99631167Y-127623010D01*
X99642408Y-127646776D01*
X99651265Y-127671529D01*
X99657652Y-127697031D01*
X99661510Y-127723037D01*
X99662800Y-127749295D01*
X99662800Y-128740505D01*
X99661510Y-128766763D01*
X99657652Y-128792769D01*
X99651265Y-128818271D01*
X99642408Y-128843024D01*
X99631167Y-128866790D01*
X99617652Y-128889339D01*
X99601991Y-128910456D01*
X99584335Y-128929935D01*
X99564856Y-128947591D01*
X99543739Y-128963252D01*
X99521190Y-128976767D01*
X99497424Y-128988008D01*
X99472671Y-128996865D01*
X99447169Y-129003252D01*
X99421163Y-129007110D01*
X99394905Y-129008400D01*
X98078695Y-129008400D01*
X98052437Y-129007110D01*
X98026431Y-129003252D01*
X98000929Y-128996865D01*
X97976176Y-128988008D01*
X97952410Y-128976767D01*
X97929861Y-128963252D01*
X97908744Y-128947591D01*
X97889265Y-128929935D01*
X97871609Y-128910456D01*
X97855948Y-128889339D01*
X97842433Y-128866790D01*
X97831192Y-128843024D01*
X97822335Y-128818271D01*
X97815948Y-128792769D01*
X97812090Y-128766763D01*
X97810800Y-128740505D01*
X97810800Y-127749295D01*
X97812090Y-127723037D01*
X97815948Y-127697031D01*
X97822335Y-127671529D01*
X97831192Y-127646776D01*
X97842433Y-127623010D01*
X97855948Y-127600461D01*
X97871609Y-127579344D01*
X97889265Y-127559865D01*
X97908744Y-127542209D01*
X97929861Y-127526548D01*
X97952410Y-127513033D01*
X97976176Y-127501792D01*
X98000929Y-127492935D01*
X98026431Y-127486548D01*
X98052437Y-127482690D01*
X98078695Y-127481400D01*
X99394905Y-127481400D01*
X99421163Y-127482690D01*
X99421163Y-127482690D01*
G37*
D32*
X98736800Y-128244900D03*
D31*
G36*
X99421163Y-124507690D02*
G01*
X99447169Y-124511548D01*
X99472671Y-124517935D01*
X99497424Y-124526792D01*
X99521190Y-124538033D01*
X99543739Y-124551548D01*
X99564856Y-124567209D01*
X99584335Y-124584865D01*
X99601991Y-124604344D01*
X99617652Y-124625461D01*
X99631167Y-124648010D01*
X99642408Y-124671776D01*
X99651265Y-124696529D01*
X99657652Y-124722031D01*
X99661510Y-124748037D01*
X99662800Y-124774295D01*
X99662800Y-125765505D01*
X99661510Y-125791763D01*
X99657652Y-125817769D01*
X99651265Y-125843271D01*
X99642408Y-125868024D01*
X99631167Y-125891790D01*
X99617652Y-125914339D01*
X99601991Y-125935456D01*
X99584335Y-125954935D01*
X99564856Y-125972591D01*
X99543739Y-125988252D01*
X99521190Y-126001767D01*
X99497424Y-126013008D01*
X99472671Y-126021865D01*
X99447169Y-126028252D01*
X99421163Y-126032110D01*
X99394905Y-126033400D01*
X98078695Y-126033400D01*
X98052437Y-126032110D01*
X98026431Y-126028252D01*
X98000929Y-126021865D01*
X97976176Y-126013008D01*
X97952410Y-126001767D01*
X97929861Y-125988252D01*
X97908744Y-125972591D01*
X97889265Y-125954935D01*
X97871609Y-125935456D01*
X97855948Y-125914339D01*
X97842433Y-125891790D01*
X97831192Y-125868024D01*
X97822335Y-125843271D01*
X97815948Y-125817769D01*
X97812090Y-125791763D01*
X97810800Y-125765505D01*
X97810800Y-124774295D01*
X97812090Y-124748037D01*
X97815948Y-124722031D01*
X97822335Y-124696529D01*
X97831192Y-124671776D01*
X97842433Y-124648010D01*
X97855948Y-124625461D01*
X97871609Y-124604344D01*
X97889265Y-124584865D01*
X97908744Y-124567209D01*
X97929861Y-124551548D01*
X97952410Y-124538033D01*
X97976176Y-124526792D01*
X98000929Y-124517935D01*
X98026431Y-124511548D01*
X98052437Y-124507690D01*
X98078695Y-124506400D01*
X99394905Y-124506400D01*
X99421163Y-124507690D01*
X99421163Y-124507690D01*
G37*
D32*
X98736800Y-125269900D03*
D12*
X121419600Y-128368000D03*
X126419600Y-128368000D03*
X108643400Y-128368000D03*
X113643400Y-128368000D03*
X83920000Y-148780000D03*
X83920000Y-153780000D03*
X94187000Y-65405000D03*
X99187000Y-65405000D03*
X78820000Y-65405000D03*
X83820000Y-65405000D03*
D41*
X51100000Y-227900000D03*
D42*
X354900000Y-216700000D03*
X51100000Y-216700000D03*
D41*
X354900000Y-227900000D03*
X202900000Y-227900000D03*
X45100000Y-47100000D03*
D43*
X53000000Y-75500000D03*
X324000000Y-95500000D03*
D44*
X254000000Y-190000000D03*
X154000000Y-190000000D03*
D12*
X102997000Y-56928000D03*
D13*
X102997000Y-58928000D03*
D34*
X66000000Y-51000000D03*
X61000000Y-51000000D03*
D30*
X63500000Y-63500000D03*
X63500000Y-71000000D03*
X63500000Y-67250000D03*
D38*
X80500000Y-50600000D03*
X95500000Y-50600000D03*
D39*
X84200000Y-45600000D03*
X91800000Y-45600000D03*
D40*
X95500000Y-60600000D03*
X80500000Y-60600000D03*
X93000000Y-58100000D03*
X83000000Y-58100000D03*
X95500000Y-55600000D03*
X80500000Y-55600000D03*
X88000000Y-55600000D03*
D29*
X49784000Y-53928000D03*
D45*
X49784000Y-58928000D03*
D46*
X48000000Y-97000000D03*
D47*
X313500000Y-69000000D03*
D46*
X358700000Y-169500000D03*
D47*
X180000000Y-69000000D03*
X283000000Y-226900000D03*
X143000000Y-226900000D03*
D46*
X48000000Y-169500000D03*
D41*
X278100000Y-47100000D03*
X147100000Y-46800000D03*
D18*
X195000000Y-80760000D03*
X243260000Y-96000000D03*
X197540000Y-80760000D03*
X240720000Y-96000000D03*
X200080000Y-80760000D03*
X238180000Y-96000000D03*
X202620000Y-80760000D03*
X235640000Y-96000000D03*
X205160000Y-80760000D03*
X233100000Y-96000000D03*
X207700000Y-80760000D03*
X230560000Y-96000000D03*
X210240000Y-80760000D03*
X228020000Y-96000000D03*
X212780000Y-80760000D03*
X225480000Y-96000000D03*
X215320000Y-80760000D03*
X222940000Y-96000000D03*
X217860000Y-80760000D03*
X220400000Y-96000000D03*
X220400000Y-80760000D03*
X217860000Y-96000000D03*
X222940000Y-80760000D03*
X215320000Y-96000000D03*
X225480000Y-80760000D03*
X212780000Y-96000000D03*
X228020000Y-80760000D03*
X210240000Y-96000000D03*
X230560000Y-80760000D03*
X207700000Y-96000000D03*
X233100000Y-80760000D03*
X205160000Y-96000000D03*
X235640000Y-80760000D03*
X202620000Y-96000000D03*
X238180000Y-80760000D03*
X200080000Y-96000000D03*
X240720000Y-80760000D03*
X197540000Y-96000000D03*
X243260000Y-80760000D03*
D19*
X195000000Y-96000000D03*
D18*
X195000000Y-104760000D03*
X243260000Y-120000000D03*
X197540000Y-104760000D03*
X240720000Y-120000000D03*
X200080000Y-104760000D03*
X238180000Y-120000000D03*
X202620000Y-104760000D03*
X235640000Y-120000000D03*
X205160000Y-104760000D03*
X233100000Y-120000000D03*
X207700000Y-104760000D03*
X230560000Y-120000000D03*
X210240000Y-104760000D03*
X228020000Y-120000000D03*
X212780000Y-104760000D03*
X225480000Y-120000000D03*
X215320000Y-104760000D03*
X222940000Y-120000000D03*
X217860000Y-104760000D03*
X220400000Y-120000000D03*
X220400000Y-104760000D03*
X217860000Y-120000000D03*
X222940000Y-104760000D03*
X215320000Y-120000000D03*
X225480000Y-104760000D03*
X212780000Y-120000000D03*
X228020000Y-104760000D03*
X210240000Y-120000000D03*
X230560000Y-104760000D03*
X207700000Y-120000000D03*
X233100000Y-104760000D03*
X205160000Y-120000000D03*
X235640000Y-104760000D03*
X202620000Y-120000000D03*
X238180000Y-104760000D03*
X200080000Y-120000000D03*
X240720000Y-104760000D03*
X197540000Y-120000000D03*
X243260000Y-104760000D03*
D19*
X195000000Y-120000000D03*
D48*
G36*
X364373000Y-179373000D02*
G01*
X358500000Y-179373000D01*
X358475224Y-179375440D01*
X358451399Y-179382667D01*
X358429443Y-179394403D01*
X358410197Y-179410197D01*
X358394403Y-179429443D01*
X358382667Y-179451399D01*
X358375440Y-179475224D01*
X358373000Y-179500000D01*
X358373000Y-191500000D01*
X358375440Y-191524776D01*
X358382667Y-191548601D01*
X358394403Y-191570557D01*
X358410197Y-191589803D01*
X358429443Y-191605597D01*
X358451399Y-191617333D01*
X358475224Y-191624560D01*
X358500000Y-191627000D01*
X364373000Y-191627000D01*
X364373000Y-213951981D01*
X349442689Y-230873000D01*
X341127000Y-230873000D01*
X341127000Y-221127000D01*
X346000000Y-221127000D01*
X346024776Y-221124560D01*
X346048601Y-221117333D01*
X346070557Y-221105597D01*
X346095973Y-221083176D01*
X352595973Y-213583176D01*
X352610355Y-213562855D01*
X352620497Y-213540118D01*
X352626008Y-213515839D01*
X352627000Y-213500000D01*
X352627000Y-159127000D01*
X364373000Y-159127000D01*
X364373000Y-179373000D01*
X364373000Y-179373000D01*
G37*
X364373000Y-179373000D02*
X358500000Y-179373000D01*
X358475224Y-179375440D01*
X358451399Y-179382667D01*
X358429443Y-179394403D01*
X358410197Y-179410197D01*
X358394403Y-179429443D01*
X358382667Y-179451399D01*
X358375440Y-179475224D01*
X358373000Y-179500000D01*
X358373000Y-191500000D01*
X358375440Y-191524776D01*
X358382667Y-191548601D01*
X358394403Y-191570557D01*
X358410197Y-191589803D01*
X358429443Y-191605597D01*
X358451399Y-191617333D01*
X358475224Y-191624560D01*
X358500000Y-191627000D01*
X364373000Y-191627000D01*
X364373000Y-213951981D01*
X349442689Y-230873000D01*
X341127000Y-230873000D01*
X341127000Y-221127000D01*
X346000000Y-221127000D01*
X346024776Y-221124560D01*
X346048601Y-221117333D01*
X346070557Y-221105597D01*
X346095973Y-221083176D01*
X352595973Y-213583176D01*
X352610355Y-213562855D01*
X352620497Y-213540118D01*
X352626008Y-213515839D01*
X352627000Y-213500000D01*
X352627000Y-159127000D01*
X364373000Y-159127000D01*
X364373000Y-179373000D01*
G36*
X191910197Y-224589803D02*
G01*
X191929443Y-224605597D01*
X191951399Y-224617333D01*
X191975224Y-224624560D01*
X192000000Y-224627000D01*
X267000000Y-224627000D01*
X267024776Y-224624560D01*
X267048601Y-224617333D01*
X267070557Y-224605597D01*
X267089803Y-224589803D01*
X270552606Y-221127000D01*
X341873000Y-221127000D01*
X341873000Y-230873000D01*
X47627000Y-230873000D01*
X47627000Y-225627000D01*
X136000000Y-225627000D01*
X136024776Y-225624560D01*
X136048601Y-225617333D01*
X136070557Y-225605597D01*
X136089803Y-225589803D01*
X136105597Y-225570557D01*
X136117333Y-225548601D01*
X136124560Y-225524776D01*
X136127000Y-225500000D01*
X136127000Y-221127000D01*
X188447394Y-221127000D01*
X191910197Y-224589803D01*
X191910197Y-224589803D01*
G37*
X191910197Y-224589803D02*
X191929443Y-224605597D01*
X191951399Y-224617333D01*
X191975224Y-224624560D01*
X192000000Y-224627000D01*
X267000000Y-224627000D01*
X267024776Y-224624560D01*
X267048601Y-224617333D01*
X267070557Y-224605597D01*
X267089803Y-224589803D01*
X270552606Y-221127000D01*
X341873000Y-221127000D01*
X341873000Y-230873000D01*
X47627000Y-230873000D01*
X47627000Y-225627000D01*
X136000000Y-225627000D01*
X136024776Y-225624560D01*
X136048601Y-225617333D01*
X136070557Y-225605597D01*
X136089803Y-225589803D01*
X136105597Y-225570557D01*
X136117333Y-225548601D01*
X136124560Y-225524776D01*
X136127000Y-225500000D01*
X136127000Y-221127000D01*
X188447394Y-221127000D01*
X191910197Y-224589803D01*
G36*
X51873000Y-106500000D02*
G01*
X51875440Y-106524776D01*
X51882667Y-106548601D01*
X51894403Y-106570557D01*
X51917349Y-106596426D01*
X55373000Y-109558413D01*
X55373000Y-178926299D01*
X48466273Y-182873000D01*
X47627000Y-182873000D01*
X47627000Y-179500000D01*
X47624560Y-179475224D01*
X47617333Y-179451399D01*
X47605597Y-179429443D01*
X47589803Y-179410197D01*
X47570557Y-179394403D01*
X47548601Y-179382667D01*
X47524776Y-179375440D01*
X47500000Y-179373000D01*
X42127000Y-179373000D01*
X42127000Y-158627000D01*
X47500000Y-158627000D01*
X47524776Y-158624560D01*
X47548601Y-158617333D01*
X47570557Y-158605597D01*
X47589803Y-158589803D01*
X47605597Y-158570557D01*
X47617333Y-158548601D01*
X47624560Y-158524776D01*
X47627000Y-158500000D01*
X47627000Y-146500000D01*
X47624560Y-146475224D01*
X47617333Y-146451399D01*
X47605597Y-146429443D01*
X47589803Y-146410197D01*
X47570557Y-146394403D01*
X47548601Y-146382667D01*
X47524776Y-146375440D01*
X47500000Y-146373000D01*
X42127000Y-146373000D01*
X42127000Y-90627000D01*
X51873000Y-90627000D01*
X51873000Y-106500000D01*
X51873000Y-106500000D01*
G37*
X51873000Y-106500000D02*
X51875440Y-106524776D01*
X51882667Y-106548601D01*
X51894403Y-106570557D01*
X51917349Y-106596426D01*
X55373000Y-109558413D01*
X55373000Y-178926299D01*
X48466273Y-182873000D01*
X47627000Y-182873000D01*
X47627000Y-179500000D01*
X47624560Y-179475224D01*
X47617333Y-179451399D01*
X47605597Y-179429443D01*
X47589803Y-179410197D01*
X47570557Y-179394403D01*
X47548601Y-179382667D01*
X47524776Y-179375440D01*
X47500000Y-179373000D01*
X42127000Y-179373000D01*
X42127000Y-158627000D01*
X47500000Y-158627000D01*
X47524776Y-158624560D01*
X47548601Y-158617333D01*
X47570557Y-158605597D01*
X47589803Y-158589803D01*
X47605597Y-158570557D01*
X47617333Y-158548601D01*
X47624560Y-158524776D01*
X47627000Y-158500000D01*
X47627000Y-146500000D01*
X47624560Y-146475224D01*
X47617333Y-146451399D01*
X47605597Y-146429443D01*
X47589803Y-146410197D01*
X47570557Y-146394403D01*
X47548601Y-146382667D01*
X47524776Y-146375440D01*
X47500000Y-146373000D01*
X42127000Y-146373000D01*
X42127000Y-90627000D01*
X51873000Y-90627000D01*
X51873000Y-106500000D01*
M02*
