M48
; DRILL file {KiCad (5.1.0)-1} date 23.11.2020 22:02:13
; FORMAT={-:-/ absolute / inch / decimal}
; #@! TF.CreationDate,2020-11-23T22:02:13+01:00
; #@! TF.GenerationSoftware,Kicad,Pcbnew,(5.1.0)-1
; #@! TF.FileFunction,NonPlated,1,2,NPTH
FMAT,2
INCH
T1C0.0945
T2C0.1260
T3C0.1339
T4C0.1378
T5C0.1575
T6C0.1732
T7C0.4724
T8C0.5512
%
G90
G05
T1
X6.122Y-1.9898
X6.7126Y-1.9898
X3.1693Y-1.9921
X3.7598Y-1.9921
T2
X13.9827Y-1.7953
X13.9827Y-2.7795
X13.9827Y-3.0587
X13.9827Y-4.0429
X5.7559Y-4.0276
T3
X1.7756Y-1.8543
X5.7913Y-1.8425
X10.9488Y-1.8543
X2.0118Y-8.9724
X7.9882Y-8.9724
X13.9724Y-8.9724
T4
X11.552Y-2.0157
X13.1268Y-2.0157
T5
X5.7586Y-4.0261
T6
X2.0118Y-8.5315
X13.9724Y-8.5315
T4
G00X13.9197Y-3.472
M15
G01X13.9197Y-3.6295
M16
G05
G00X13.9197Y-2.2087
M15
G01X13.9197Y-2.3661
M16
G05
T7
G00X6.063Y-7.4213
M15
G01X6.063Y-7.5394
M16
G05
G00X10.0Y-7.4213
M15
G01X10.0Y-7.5394
M16
G05
T8
G00X12.7559Y-3.6614
M15
G01X12.7559Y-3.8583
M16
G05
G00X2.0866Y-2.874
M15
G01X2.0866Y-3.0709
M16
G05
T0
M30
